<svg xmlns="http://www.w3.org/2000/svg" viewBox="0 0 320 240" width="1600" height="1200"><defs><clipPath id="c"><rect width="320" height="240"/></clipPath></defs><g clip-path="url(#c)"><defs>
    <radialGradient id="lt" cx=".25" cy=".12" r=".9"><stop offset="0" stop-color="#fff" stop-opacity="0.38"/><stop offset=".55" stop-color="#fff" stop-opacity="0"/></radialGradient>
    <linearGradient id="vg" x1="0" y1="0" x2="0" y2="1"><stop offset=".62" stop-color="#1A0F45" stop-opacity="0"/><stop offset="1" stop-color="#1A0F45" stop-opacity="0.16"/></linearGradient>
    <filter id="sm" x="-30%" y="-30%" width="160%" height="160%"><feGaussianBlur stdDeviation="1.6"/></filter></defs><rect width="320" height="240" fill="#FFF1D6"/><path d="M20 0V116M60 0V116M100 0V116M140 0V116M180 0V116M220 0V116M260 0V116M300 0V116M0 20H320M0 60H320M0 100H320" stroke="#F1D9AE" stroke-width="1.4"/><rect x="139" y="14" width="72" height="58" rx="4" fill="#BDEBFF" stroke="#fff" stroke-width="5"/><rect x="139" y="14" width="72" height="58" rx="4" fill="none" stroke="#1A0F45" stroke-width="1.6"/><path d="M175 14v58M139 43h72" stroke="#fff" stroke-width="4"/><circle cx="193" cy="28" r="6" fill="#FFF3B0"/><rect y="116" width="320" height="124" fill="#FFE0E8"/><path d="M20 118h20v20h-20zM60 118h20v20h-20zM100 118h20v20h-20zM140 118h20v20h-20zM180 118h20v20h-20zM220 118h20v20h-20zM260 118h20v20h-20zM300 118h20v20h-20zM0 138h20v20h-20zM40 138h20v20h-20zM80 138h20v20h-20zM120 138h20v20h-20zM160 138h20v20h-20zM200 138h20v20h-20zM240 138h20v20h-20zM280 138h20v20h-20zM20 158h20v20h-20zM60 158h20v20h-20zM100 158h20v20h-20zM140 158h20v20h-20zM180 158h20v20h-20zM220 158h20v20h-20zM260 158h20v20h-20zM300 158h20v20h-20zM0 178h20v20h-20zM40 178h20v20h-20zM80 178h20v20h-20zM120 178h20v20h-20zM160 178h20v20h-20zM200 178h20v20h-20zM240 178h20v20h-20zM280 178h20v20h-20zM20 198h20v20h-20zM60 198h20v20h-20zM100 198h20v20h-20zM140 198h20v20h-20zM180 198h20v20h-20zM220 198h20v20h-20zM260 198h20v20h-20zM300 198h20v20h-20zM0 218h20v20h-20zM40 218h20v20h-20zM80 218h20v20h-20zM120 218h20v20h-20zM160 218h20v20h-20zM200 218h20v20h-20zM240 218h20v20h-20zM280 218h20v20h-20z" fill="#FFC7D6" opacity=".7"/><path d="M0 116h320" stroke="#1A0F45" stroke-width="2"/><path d="M97.0 149.2l-1.6-4.2M97.0 149.2l.2-5M97.0 149.2l1.8-4" stroke="#B07A3C" stroke-width="1" stroke-linecap="round" opacity=".28"/><path d="M22.1 188.2l-1.6-4.2M22.1 188.2l.2-5M22.1 188.2l1.8-4" stroke="#B07A3C" stroke-width="1" stroke-linecap="round" opacity=".28"/><path d="M298.1 219.8l-1.6-4.2M298.1 219.8l.2-5M298.1 219.8l1.8-4" stroke="#B07A3C" stroke-width="1" stroke-linecap="round" opacity=".28"/><path d="M160.7 220.0l-1.6-4.2M160.7 220.0l.2-5M160.7 220.0l1.8-4" stroke="#B07A3C" stroke-width="1" stroke-linecap="round" opacity=".28"/><path d="M273.5 174.0l-1.6-4.2M273.5 174.0l.2-5M273.5 174.0l1.8-4" stroke="#B07A3C" stroke-width="1" stroke-linecap="round" opacity=".28"/><path d="M49.0 206.3l-1.6-4.2M49.0 206.3l.2-5M49.0 206.3l1.8-4" stroke="#B07A3C" stroke-width="1" stroke-linecap="round" opacity=".28"/><path d="M81.2 185.9l-1.6-4.2M81.2 185.9l.2-5M81.2 185.9l1.8-4" stroke="#B07A3C" stroke-width="1" stroke-linecap="round" opacity=".28"/><path d="M210.8 192.3l-1.6-4.2M210.8 192.3l.2-5M210.8 192.3l1.8-4" stroke="#B07A3C" stroke-width="1" stroke-linecap="round" opacity=".28"/><path d="M118.5 156.2l-1.6-4.2M118.5 156.2l.2-5M118.5 156.2l1.8-4" stroke="#B07A3C" stroke-width="1" stroke-linecap="round" opacity=".28"/><path d="M265.2 182.7l-1.6-4.2M265.2 182.7l.2-5M265.2 182.7l1.8-4" stroke="#B07A3C" stroke-width="1" stroke-linecap="round" opacity=".28"/><path d="M27.1 212.3l-1.6-4.2M27.1 212.3l.2-5M27.1 212.3l1.8-4" stroke="#B07A3C" stroke-width="1" stroke-linecap="round" opacity=".28"/><path d="M273.7 215.5l-1.6-4.2M273.7 215.5l.2-5M273.7 215.5l1.8-4" stroke="#B07A3C" stroke-width="1" stroke-linecap="round" opacity=".28"/><path d="M108.3 194.2l-1.6-4.2M108.3 194.2l.2-5M108.3 194.2l1.8-4" stroke="#B07A3C" stroke-width="1" stroke-linecap="round" opacity=".28"/><path d="M262.7 208.1l-1.6-4.2M262.7 208.1l.2-5M262.7 208.1l1.8-4" stroke="#B07A3C" stroke-width="1" stroke-linecap="round" opacity=".28"/><path d="M111.1 175.4l-1.6-4.2M111.1 175.4l.2-5M111.1 175.4l1.8-4" stroke="#B07A3C" stroke-width="1" stroke-linecap="round" opacity=".28"/><path d="M235.6 225.6l-1.6-4.2M235.6 225.6l.2-5M235.6 225.6l1.8-4" stroke="#B07A3C" stroke-width="1" stroke-linecap="round" opacity=".28"/><path d="M27.3 148.9l-1.6-4.2M27.3 148.9l.2-5M27.3 148.9l1.8-4" stroke="#B07A3C" stroke-width="1" stroke-linecap="round" opacity=".28"/><path d="M314.7 148.2l-1.6-4.2M314.7 148.2l.2-5M314.7 148.2l1.8-4" stroke="#B07A3C" stroke-width="1" stroke-linecap="round" opacity=".28"/><path d="M27.8 235.5l-1.6-4.2M27.8 235.5l.2-5M27.8 235.5l1.8-4" stroke="#B07A3C" stroke-width="1" stroke-linecap="round" opacity=".28"/><path d="M189.8 185.9l-1.6-4.2M189.8 185.9l.2-5M189.8 185.9l1.8-4" stroke="#B07A3C" stroke-width="1" stroke-linecap="round" opacity=".28"/><path d="M46.9 201.9l-1.6-4.2M46.9 201.9l.2-5M46.9 201.9l1.8-4" stroke="#B07A3C" stroke-width="1" stroke-linecap="round" opacity=".28"/><path d="M25.8 222.0l-1.6-4.2M25.8 222.0l.2-5M25.8 222.0l1.8-4" stroke="#B07A3C" stroke-width="1" stroke-linecap="round" opacity=".28"/><path d="M162.0 183.8l-1.6-4.2M162.0 183.8l.2-5M162.0 183.8l1.8-4" stroke="#B07A3C" stroke-width="1" stroke-linecap="round" opacity=".28"/><path d="M189.0 177.2l-1.6-4.2M189.0 177.2l.2-5M189.0 177.2l1.8-4" stroke="#B07A3C" stroke-width="1" stroke-linecap="round" opacity=".28"/><path d="M218.7 228.0l-1.6-4.2M218.7 228.0l.2-5M218.7 228.0l1.8-4" stroke="#B07A3C" stroke-width="1" stroke-linecap="round" opacity=".28"/><path d="M114.1 184.5l-1.6-4.2M114.1 184.5l.2-5M114.1 184.5l1.8-4" stroke="#B07A3C" stroke-width="1" stroke-linecap="round" opacity=".28"/><path d="M274.8 195.2l-1.6-4.2M274.8 195.2l.2-5M274.8 195.2l1.8-4" stroke="#B07A3C" stroke-width="1" stroke-linecap="round" opacity=".28"/><path d="M75.9 180.0l-1.6-4.2M75.9 180.0l.2-5M75.9 180.0l1.8-4" stroke="#B07A3C" stroke-width="1" stroke-linecap="round" opacity=".28"/><path d="M220.4 179.9l-1.6-4.2M220.4 179.9l.2-5M220.4 179.9l1.8-4" stroke="#B07A3C" stroke-width="1" stroke-linecap="round" opacity=".28"/><path d="M266.4 159.9l-1.6-4.2M266.4 159.9l.2-5M266.4 159.9l1.8-4" stroke="#B07A3C" stroke-width="1" stroke-linecap="round" opacity=".28"/><path d="M211.6 182.3l-1.6-4.2M211.6 182.3l.2-5M211.6 182.3l1.8-4" stroke="#B07A3C" stroke-width="1" stroke-linecap="round" opacity=".28"/><path d="M165.7 229.3l-1.6-4.2M165.7 229.3l.2-5M165.7 229.3l1.8-4" stroke="#B07A3C" stroke-width="1" stroke-linecap="round" opacity=".28"/><path d="M301.4 170.3l-1.6-4.2M301.4 170.3l.2-5M301.4 170.3l1.8-4" stroke="#B07A3C" stroke-width="1" stroke-linecap="round" opacity=".28"/><path d="M99.9 156.2l-1.6-4.2M99.9 156.2l.2-5M99.9 156.2l1.8-4" stroke="#B07A3C" stroke-width="1" stroke-linecap="round" opacity=".28"/><path d="M297.5 154.6l-1.6-4.2M297.5 154.6l.2-5M297.5 154.6l1.8-4" stroke="#B07A3C" stroke-width="1" stroke-linecap="round" opacity=".28"/><path d="M259.3 182.0l-1.6-4.2M259.3 182.0l.2-5M259.3 182.0l1.8-4" stroke="#B07A3C" stroke-width="1" stroke-linecap="round" opacity=".28"/><path d="M236.8 222.2l-1.6-4.2M236.8 222.2l.2-5M236.8 222.2l1.8-4" stroke="#B07A3C" stroke-width="1" stroke-linecap="round" opacity=".28"/><path d="M183.0 213.2l-1.6-4.2M183.0 213.2l.2-5M183.0 213.2l1.8-4" stroke="#B07A3C" stroke-width="1" stroke-linecap="round" opacity=".28"/><path d="M223.5 159.2l-1.6-4.2M223.5 159.2l.2-5M223.5 159.2l1.8-4" stroke="#B07A3C" stroke-width="1" stroke-linecap="round" opacity=".28"/><path d="M256.9 233.8l-1.6-4.2M256.9 233.8l.2-5M256.9 233.8l1.8-4" stroke="#B07A3C" stroke-width="1" stroke-linecap="round" opacity=".28"/><path d="M9.8 160.5l-1.6-4.2M9.8 160.5l.2-5M9.8 160.5l1.8-4" stroke="#B07A3C" stroke-width="1" stroke-linecap="round" opacity=".28"/><path d="M212.7 153.3l-1.6-4.2M212.7 153.3l.2-5M212.7 153.3l1.8-4" stroke="#B07A3C" stroke-width="1" stroke-linecap="round" opacity=".28"/><path d="M281.2 159.7l-1.6-4.2M281.2 159.7l.2-5M281.2 159.7l1.8-4" stroke="#B07A3C" stroke-width="1" stroke-linecap="round" opacity=".28"/><path d="M146.8 156.7l-1.6-4.2M146.8 156.7l.2-5M146.8 156.7l1.8-4" stroke="#B07A3C" stroke-width="1" stroke-linecap="round" opacity=".28"/><path d="M283.6 228.8l-1.6-4.2M283.6 228.8l.2-5M283.6 228.8l1.8-4" stroke="#B07A3C" stroke-width="1" stroke-linecap="round" opacity=".28"/><path d="M87.2 227.5l-1.6-4.2M87.2 227.5l.2-5M87.2 227.5l1.8-4" stroke="#B07A3C" stroke-width="1" stroke-linecap="round" opacity=".28"/><g id="o0"><g transform="translate(262.5 35.2) scale(0.923 0.923) translate(-20 -20)"><circle cx="20" cy="22" r="17" fill="#FF5A5F" stroke="#1A0F45" stroke-width="2" stroke-linejoin="round" stroke-linecap="round"/><circle cx="20" cy="22" r="12.4" fill="#fff" stroke="#1A0F45" stroke-width="1.5" stroke-linejoin="round" stroke-linecap="round"/><path d="M20 22l-5.6 5.6M20 22h10" stroke="#1A0F45" stroke-width="2.6" stroke-linecap="round"/><circle cx="20" cy="22" r="1.8" fill="#1A0F45"/></g></g><g id="o1"><g transform="translate(80.9 72.4) scale(1.041 1.041) translate(-25 -20)"><rect x="2" y="2" width="46" height="36" rx="3" fill="#C9824A" stroke="#1A0F45" stroke-width="2" stroke-linejoin="round" stroke-linecap="round"/><rect x="8" y="8" width="34" height="24" fill="#BDEBFF" stroke="#1A0F45" stroke-width="1.5" stroke-linejoin="round" stroke-linecap="round"/><path d="M25 23.4c-4.7250000000000005 -3.24 -7.425000000000001 -5.940000000000001 -7.425000000000001 -8.91 0 -2.43 1.7550000000000001 -4.050000000000001 3.78 -4.050000000000001 1.62 0 2.8350000000000004 0.945 3.6450000000000005 2.16 0.81 -1.215 2.0250000000000004 -2.16 3.6450000000000005 -2.16 2.0250000000000004 0 3.78 1.62 3.78 4.050000000000001 0 2.9700000000000006 -2.7 5.670000000000001 -7.425000000000001 8.91z" fill="#FF3D7F" stroke="#1A0F45" stroke-width="1.2" stroke-linejoin="round" stroke-linecap="round"/></g></g><g id="o2"><g transform="translate(253.9 82.2) scale(1.058 1.058) translate(-25 -20)"><rect x="2" y="2" width="46" height="36" rx="3" fill="#FFC93C" stroke="#1A0F45" stroke-width="2" stroke-linejoin="round" stroke-linecap="round"/><rect x="8" y="8" width="34" height="24" fill="#BDEBFF" stroke="#1A0F45" stroke-width="1.5" stroke-linejoin="round" stroke-linecap="round"/><path d="M8.8 31.2l9.6-13.6 7 8 5-5 11 10.6z" fill="#3DBE5A" stroke="#1A0F45" stroke-width="1.3" stroke-linejoin="round" stroke-linecap="round"/><circle cx="35" cy="14" r="3.4" fill="#FFC93C" stroke="#1A0F45" stroke-width="1.2" stroke-linejoin="round" stroke-linecap="round"/></g></g><g id="o3"><ellipse cx="56.0" cy="142.4" rx="16.3" ry="3.0" fill="#1A0F45" opacity=".16" filter="url(#sm)"/><g transform="translate(56.0 126.7) scale(-0.985 0.985) translate(-18 -17)"><path d="M12 9c-3-3 3-5 0-8M19 9c-3-3 3-5 0-8" fill="none" stroke="#9C88C9" stroke-width="2.2" stroke-linecap="round"/><ellipse cx="16" cy="31.5" rx="14" ry="2.5" fill="#fff" stroke="#1A0F45" stroke-width="1.5" stroke-linejoin="round" stroke-linecap="round"/><path d="M25 15h3a5.4 5.4 0 0 1 0 10.8h-3" fill="none" stroke="#1A0F45" stroke-width="5.6"/><path d="M25 15h3a5.4 5.4 0 0 1 0 10.8h-3" fill="none" stroke="#FF6FB5" stroke-width="2.4"/><path d="M5 12h22l-2 16c-.4 2.6-2.6 4.4-5.4 4.4h-7.2C9.6 32.4 7.4 30.6 7 28z" fill="#FF6FB5" stroke="#1A0F45" stroke-width="2" stroke-linejoin="round" stroke-linecap="round"/><path d="M16 23.5c-3.5 -2.4 -5.5 -4.4 -5.5 -6.6 0 -1.8 1.3 -3 2.8 -3 1.2 0 2.1 0.7 2.7 1.6 0.6 -0.9 1.5 -1.6 2.7 -1.6 1.5 0 2.8 1.2 2.8 3 0 2.2 -2 4.2 -5.5 6.6z" fill="#fff" stroke="#1A0F45" stroke-width="1.2" stroke-linejoin="round" stroke-linecap="round"/></g></g><g id="o4"><ellipse cx="231.2" cy="145.0" rx="15.1" ry="3.0" fill="#1A0F45" opacity=".16" filter="url(#sm)"/><g transform="translate(231.2 130.5) scale(0.911 0.911) translate(-18 -17)"><path d="M12 9c-3-3 3-5 0-8M19 9c-3-3 3-5 0-8" fill="none" stroke="#9C88C9" stroke-width="2.2" stroke-linecap="round"/><ellipse cx="16" cy="31.5" rx="14" ry="2.5" fill="#fff" stroke="#1A0F45" stroke-width="1.5" stroke-linejoin="round" stroke-linecap="round"/><path d="M25 15h3a5.4 5.4 0 0 1 0 10.8h-3" fill="none" stroke="#1A0F45" stroke-width="5.6"/><path d="M25 15h3a5.4 5.4 0 0 1 0 10.8h-3" fill="none" stroke="#4B8BFF" stroke-width="2.4"/><path d="M5 12h22l-2 16c-.4 2.6-2.6 4.4-5.4 4.4h-7.2C9.6 32.4 7.4 30.6 7 28z" fill="#4B8BFF" stroke="#1A0F45" stroke-width="2" stroke-linejoin="round" stroke-linecap="round"/><path d="M16 23.5c-3.5 -2.4 -5.5 -4.4 -5.5 -6.6 0 -1.8 1.3 -3 2.8 -3 1.2 0 2.1 0.7 2.7 1.6 0.6 -0.9 1.5 -1.6 2.7 -1.6 1.5 0 2.8 1.2 2.8 3 0 2.2 -2 4.2 -5.5 6.6z" fill="#fff" stroke="#1A0F45" stroke-width="1.2" stroke-linejoin="round" stroke-linecap="round"/></g></g><g id="o5"><ellipse cx="183.5" cy="147.8" rx="24.2" ry="4.2" fill="#1A0F45" opacity=".16" filter="url(#sm)"/><g transform="translate(183.5 127.3) scale(1.195 1.195) translate(-22 -18)"><path d="M9 30c-7-2-8-12-2-15" fill="none" stroke="#1A0F45" stroke-width="6.4" stroke-linecap="round"/><path d="M9 30c-7-2-8-12-2-15" fill="none" stroke="#FFFFFF" stroke-width="3.2" stroke-linecap="round"/><ellipse cx="18" cy="26" rx="13" ry="8.6" fill="#FFFFFF" stroke="#1A0F45" stroke-width="2" stroke-linejoin="round" stroke-linecap="round"/><path d="M13 19l2 5.4M18 18l.8 5.6M23 18.4l-.4 5.4" stroke="#1A0F45" stroke-width="2" stroke-linecap="round" opacity=".7"/><ellipse cx="12" cy="34" rx="3.6" ry="2" fill="#FFFFFF" stroke="#1A0F45" stroke-width="1.4" stroke-linejoin="round" stroke-linecap="round"/><ellipse cx="23" cy="34" rx="3.6" ry="2" fill="#FFFFFF" stroke="#1A0F45" stroke-width="1.4" stroke-linejoin="round" stroke-linecap="round"/><path d="M24 9l1-8 7 5zM34 6l6-5 1 9z" fill="#FFFFFF" stroke="#1A0F45" stroke-width="2" stroke-linejoin="round" stroke-linecap="round"/><circle cx="32" cy="15" r="10" fill="#FFFFFF" stroke="#1A0F45" stroke-width="2" stroke-linejoin="round" stroke-linecap="round"/><circle cx="28.6" cy="14" r="1.5" fill="#1A0F45"/><circle cx="36" cy="14" r="1.5" fill="#1A0F45"/><path d="M31.4 18l1 1 1-1" fill="none" stroke="#1A0F45" stroke-width="1.2" stroke-linejoin="round" stroke-linecap="round"/><circle cx="27" cy="18" r="1.8" fill="#FF8FB0" opacity=".7"/><path d="M26.5 24.5l-5-3.2v6.4zM26.5 24.5l5-3.2v6.4z" fill="#FF3D7F" stroke="#1A0F45" stroke-width="1.3" stroke-linejoin="round" stroke-linecap="round"/></g></g><g id="o6"><ellipse cx="199.7" cy="179.6" rx="33.2" ry="5.8" fill="#1A0F45" opacity=".16" filter="url(#sm)"/><g transform="translate(199.7 167.5) scale(1.094 1.094) translate(-33 -12)"><path d="M37 12h27" stroke="#1A0F45" stroke-width="7.4" stroke-linecap="round"/><path d="M37 12h27" stroke="#8A5A2B" stroke-width="4" stroke-linecap="round"/><ellipse cx="20" cy="12" rx="18.6" ry="10.6" fill="#5A5470" stroke="#1A0F45" stroke-width="2" stroke-linejoin="round" stroke-linecap="round"/><ellipse cx="20" cy="11.4" rx="13.6" ry="7" fill="#2A2440" opacity=".35"/><path d="M11 11c0-5 6-6 9-4 3-2 9-1 9 3s-4 6-9 5c-5 1-9-1-9-4z" fill="#fff" stroke="#1A0F45" stroke-width="1.3" stroke-linejoin="round" stroke-linecap="round"/><circle cx="20" cy="10.6" r="3.4" fill="#FFB020" stroke="#1A0F45" stroke-width="1.2" stroke-linejoin="round" stroke-linecap="round"/></g></g><g id="o7"><ellipse cx="111.3" cy="183.6" rx="29.1" ry="5.1" fill="#1A0F45" opacity=".16" filter="url(#sm)"/><g transform="translate(111.3 160.0) scale(1.172 1.172) translate(-27 -21)"><path d="M14 26L2 14l3.4-2.6L17 20z" fill="#4B8BFF" stroke="#1A0F45" stroke-width="2" stroke-linejoin="round" stroke-linecap="round"/><path d="M41 17c10 0 11 15 0 15" fill="none" stroke="#1A0F45" stroke-width="6"/><path d="M41 17c10 0 11 15 0 15" fill="none" stroke="#4B8BFF" stroke-width="2.6"/><ellipse cx="26" cy="27" rx="17" ry="14" fill="#4B8BFF" stroke="#1A0F45" stroke-width="2" stroke-linejoin="round" stroke-linecap="round"/><path d="M14.5 15c3-6.4 20-6.4 23 0z" fill="#4B8BFF" stroke="#1A0F45" stroke-width="2" stroke-linejoin="round" stroke-linecap="round"/><circle cx="26" cy="6.4" r="3" fill="#4B8BFF" stroke="#1A0F45" stroke-width="2" stroke-linejoin="round" stroke-linecap="round"/><circle cx="19" cy="26" r="2.8" fill="#fff"/><circle cx="30" cy="22.5" r="2.8" fill="#fff"/><circle cx="29" cy="33" r="2.8" fill="#fff"/></g></g><g id="o8"><ellipse cx="280.7" cy="192.3" rx="16.8" ry="3.0" fill="#1A0F45" opacity=".16" filter="url(#sm)"/><g transform="translate(280.7 169.0) scale(1.016 1.016) translate(-18 -24)"><path d="M18 30C10 26 5 18 7 10c7 3 11 10 11 20z" fill="#3DBE5A" stroke="#1A0F45" stroke-width="1.5" stroke-linejoin="round" stroke-linecap="round"/><path d="M18 30c8-4 13-12 11-20-7 3-11 10-11 20z" fill="#2EAA4A" stroke="#1A0F45" stroke-width="1.5" stroke-linejoin="round" stroke-linecap="round"/><path d="M18 30c-3-7-2-14 0-20 2 6 3 13 0 20z" fill="#5BD06A" stroke="#1A0F45" stroke-width="1.5" stroke-linejoin="round" stroke-linecap="round"/><path d="M7 31h22l-3 16H10z" fill="#4B8BFF" stroke="#1A0F45" stroke-width="2" stroke-linejoin="round" stroke-linecap="round"/><rect x="5" y="28" width="26" height="5.4" rx="2" fill="#4B8BFF" stroke="#1A0F45" stroke-width="2" stroke-linejoin="round" stroke-linecap="round"/></g></g><g id="o9"><rect width=".1" height=".1" opacity="0"/></g><g id="o10"><ellipse cx="197.1" cy="215.2" rx="22.0" ry="3.8" fill="#1A0F45" opacity=".16" filter="url(#sm)"/><g transform="translate(197.1 203.8) scale(0.955 0.955) translate(-25 -13)"><path d="M2 12h46c0 8.4-9 13-23 13S2 20.4 2 12z" fill="#3DBE5A" stroke="#1A0F45" stroke-width="2" stroke-linejoin="round" stroke-linecap="round"/><path d="M7.4 17.4h35.2" stroke="#fff" stroke-width="3.4" stroke-linecap="round"/></g></g><g id="o11"><ellipse cx="124.2" cy="220.5" rx="12.4" ry="3.0" fill="#1A0F45" opacity=".16" filter="url(#sm)"/><g transform="translate(124.2 207.0) scale(1.040 1.040) translate(-13 -14)"><path d="M13 9c0-3 1-5 2.4-7" fill="none" stroke="#1A0F45" stroke-width="2" stroke-linejoin="round" stroke-linecap="round"/><path d="M13 9.4c-3-2-8-3-11 1-4 4-2 12 1 15 3 3.6 6 3.6 8 2.6 1-.5 3-.5 4 0 2 1 5 1 8-2.6 3-3 5-11 1-15-3-4-8-3-11-1z" fill="#FFC93C" stroke="#1A0F45" stroke-width="2" stroke-linejoin="round" stroke-linecap="round"/><ellipse cx="7" cy="15" rx="2" ry="4" transform="rotate(20 7 15)" fill="#fff" opacity=".6"/></g></g><g id="o12"><ellipse cx="250.9" cy="220.9" rx="20.8" ry="3.6" fill="#1A0F45" opacity=".16" filter="url(#sm)"/><g transform="translate(250.9 210.2) scale(0.906 0.906) translate(-25 -13)"><circle cx="16" cy="10" r="6" fill="#FF9A3D" stroke="#1A0F45" stroke-width="1.5" stroke-linejoin="round" stroke-linecap="round"/><circle cx="34" cy="10.4" r="5.6" fill="#E8203F" stroke="#1A0F45" stroke-width="1.5" stroke-linejoin="round" stroke-linecap="round"/><circle cx="25" cy="7.4" r="6.4" fill="#FFC93C" stroke="#1A0F45" stroke-width="1.5" stroke-linejoin="round" stroke-linecap="round"/><path d="M2 12h46c0 8.4-9 13-23 13S2 20.4 2 12z" fill="#4B8BFF" stroke="#1A0F45" stroke-width="2" stroke-linejoin="round" stroke-linecap="round"/></g></g><rect width="320" height="240" fill="url(#lt)"/><rect width="320" height="240" fill="url(#vg)"/><rect x=".75" y=".75" width="318.5" height="238.5" rx="6" fill="none" stroke="#1A0F45" stroke-width="1.5" opacity=".35"/></g></svg>