<svg xmlns="http://www.w3.org/2000/svg" viewBox="0 0 320 240" width="1600" height="1200"><defs><clipPath id="c"><rect width="320" height="240"/></clipPath></defs><g clip-path="url(#c)"><defs>
    <radialGradient id="lt" cx=".25" cy=".12" r=".9"><stop offset="0" stop-color="#fff" stop-opacity="0.08"/><stop offset=".55" stop-color="#fff" stop-opacity="0"/></radialGradient>
    <linearGradient id="vg" x1="0" y1="0" x2="0" y2="1"><stop offset=".62" stop-color="#1A0F45" stop-opacity="0"/><stop offset="1" stop-color="#1A0F45" stop-opacity="0.35"/></linearGradient>
    <filter id="sm" x="-30%" y="-30%" width="160%" height="160%"><feGaussianBlur stdDeviation="1.6"/></filter></defs><rect width="320" height="240" fill="#211A52"/><ellipse cx="267" cy="98" rx="52" ry="43" fill="#3B2C85" opacity=".55"/><ellipse cx="79" cy="100" rx="77" ry="34" fill="#3B2C85" opacity=".55"/><ellipse cx="55" cy="210" rx="82" ry="45" fill="#3B2C85" opacity=".55"/><circle cx="104.3" cy="138.4" r="1.0" fill="#fff" opacity="0.60"/><circle cx="31.0" cy="142.3" r="1.1" fill="#fff" opacity="0.68"/><circle cx="69.1" cy="45.7" r="0.7" fill="#fff" opacity="0.76"/><circle cx="219.6" cy="213.9" r="1.3" fill="#fff" opacity="0.63"/><circle cx="295.9" cy="166.3" r="0.8" fill="#fff" opacity="0.48"/><circle cx="11.1" cy="207.2" r="0.8" fill="#fff" opacity="0.53"/><circle cx="218.8" cy="130.4" r="0.6" fill="#fff" opacity="0.53"/><circle cx="219.8" cy="113.0" r="1.2" fill="#fff" opacity="0.81"/><circle cx="83.1" cy="131.8" r="0.7" fill="#fff" opacity="0.55"/><circle cx="35.0" cy="94.0" r="1.0" fill="#fff" opacity="0.82"/><circle cx="165.9" cy="145.3" r="1.0" fill="#fff" opacity="0.64"/><circle cx="253.3" cy="120.2" r="0.6" fill="#fff" opacity="0.59"/><circle cx="141.1" cy="232.0" r="0.8" fill="#fff" opacity="0.80"/><circle cx="229.9" cy="186.5" r="0.6" fill="#fff" opacity="0.52"/><circle cx="68.2" cy="181.9" r="0.9" fill="#fff" opacity="0.68"/><circle cx="117.2" cy="154.9" r="0.6" fill="#fff" opacity="0.49"/><circle cx="264.5" cy="49.2" r="0.6" fill="#fff" opacity="0.75"/><circle cx="127.8" cy="100.4" r="1.3" fill="#fff" opacity="0.80"/><circle cx="316.1" cy="222.4" r="1.0" fill="#fff" opacity="0.53"/><circle cx="204.9" cy="40.3" r="1.0" fill="#fff" opacity="0.68"/><circle cx="174.3" cy="69.0" r="1.1" fill="#fff" opacity="0.65"/><circle cx="12.3" cy="139.6" r="1.2" fill="#fff" opacity="0.63"/><circle cx="118.4" cy="66.2" r="1.3" fill="#fff" opacity="0.59"/><circle cx="220.8" cy="172.7" r="1.2" fill="#fff" opacity="0.68"/><circle cx="192.4" cy="189.5" r="1.1" fill="#fff" opacity="0.78"/><circle cx="11.6" cy="61.8" r="1.2" fill="#fff" opacity="0.48"/><circle cx="23.5" cy="192.5" r="1.1" fill="#fff" opacity="0.80"/><circle cx="194.2" cy="49.9" r="0.8" fill="#fff" opacity="0.50"/><circle cx="163.0" cy="11.7" r="1.1" fill="#fff" opacity="0.54"/><circle cx="155.1" cy="9.0" r="0.9" fill="#fff" opacity="0.67"/><circle cx="243.0" cy="29.8" r="0.9" fill="#fff" opacity="0.50"/><circle cx="28.2" cy="22.8" r="0.8" fill="#fff" opacity="0.82"/><circle cx="169.9" cy="174.1" r="0.9" fill="#fff" opacity="0.68"/><circle cx="153.0" cy="156.6" r="1.0" fill="#fff" opacity="0.79"/><circle cx="249.8" cy="103.4" r="0.9" fill="#fff" opacity="0.65"/><circle cx="218.8" cy="219.6" r="0.8" fill="#fff" opacity="0.55"/><path d="M113.3 130.4v6M110.3 133.4h6" stroke="#fff" stroke-width=".9" stroke-linecap="round" opacity=".5"/><path d="M29.1 148.4v6M26.1 151.4h6" stroke="#fff" stroke-width=".9" stroke-linecap="round" opacity=".5"/><path d="M164.2 113.3v6M161.2 116.3h6" stroke="#fff" stroke-width=".9" stroke-linecap="round" opacity=".5"/><path d="M255.4 81.3v6M252.4 84.3h6" stroke="#fff" stroke-width=".9" stroke-linecap="round" opacity=".5"/><path d="M274.8 97.3v6M271.8 100.3h6" stroke="#fff" stroke-width=".9" stroke-linecap="round" opacity=".5"/><path d="M10.5 185.2v6M7.5 188.2h6" stroke="#fff" stroke-width=".9" stroke-linecap="round" opacity=".5"/><path d="M277.4 141.3v6M274.4 144.3h6" stroke="#fff" stroke-width=".9" stroke-linecap="round" opacity=".5"/><path d="M293.5 154.4v6M290.5 157.4h6" stroke="#fff" stroke-width=".9" stroke-linecap="round" opacity=".5"/><path d="M150.8 218.4v6M147.8 221.4h6" stroke="#fff" stroke-width=".9" stroke-linecap="round" opacity=".5"/><path d="M139.9 103.5v6M136.9 106.5h6" stroke="#fff" stroke-width=".9" stroke-linecap="round" opacity=".5"/><path d="M267.7 222.4v6M264.7 225.4h6" stroke="#fff" stroke-width=".9" stroke-linecap="round" opacity=".5"/><path d="M164.2 198.8v6M161.2 201.8h6" stroke="#fff" stroke-width=".9" stroke-linecap="round" opacity=".5"/><path d="M207.8 191.9v6M204.8 194.9h6" stroke="#fff" stroke-width=".9" stroke-linecap="round" opacity=".5"/><path d="M280.8 123.4v6M277.8 126.4h6" stroke="#fff" stroke-width=".9" stroke-linecap="round" opacity=".5"/><g id="o0"><g transform="translate(129.3 28.9) scale(1.034 1.034) translate(-17 -14)"><path d="M5 14C3 7 10 2 17 3c7-2 14 2 14 9 2 7-4 13-12 13C10 26 4 21 5 14z" fill="#7BC74D" stroke="#1A0F45" stroke-width="2" stroke-linejoin="round" stroke-linecap="round"/><ellipse cx="11" cy="9" rx="2" ry="3" transform="rotate(30 11 9)" fill="#fff" opacity=".6"/></g></g><g id="o1"><g transform="translate(266.5 37.9) scale(1.162 1.162) translate(-25 -25)"><circle cx="25" cy="25" r="15" fill="#3DBE5A" stroke="#1A0F45" stroke-width="2" stroke-linejoin="round" stroke-linecap="round"/><path d="M12 21c8 3 18 3 26-1" fill="none" stroke="#fff" stroke-width="2.6" opacity=".55"/><ellipse cx="19" cy="17" rx="3" ry="4.6" transform="rotate(35 19 17)" fill="#fff" opacity=".6"/></g></g><g id="o2"><g transform="translate(169.1 75.3) scale(0.976 0.976) translate(-25 -25)"><circle cx="25" cy="25" r="15" fill="#FF6FB5" stroke="#1A0F45" stroke-width="2" stroke-linejoin="round" stroke-linecap="round"/><path d="M12 21c8 3 18 3 26-1" fill="none" stroke="#fff" stroke-width="2.6" opacity=".55"/><ellipse cx="19" cy="17" rx="3" ry="4.6" transform="rotate(35 19 17)" fill="#fff" opacity=".6"/></g></g><g id="o3"><g transform="translate(59.9 70.8) scale(1.160 1.160) translate(-15 -29)"><path d="M9.6 45c0 6 3 10.6 5.4 12.4 2.4-1.8 5.4-6.4 5.4-12.4z" fill="#FFB020" stroke="#1A0F45" stroke-width="1.5" stroke-linejoin="round" stroke-linecap="round"/><path d="M12.4 46c0 4 1.4 6.6 2.6 7.6 1.2-1 2.6-3.6 2.6-7.6z" fill="#FFF3B0"/><path d="M7.4 30L1 42v5l8.4-4zM22.6 30L29 42v5l-8.4-4z" fill="#B266FF" stroke="#1A0F45" stroke-width="2" stroke-linejoin="round" stroke-linecap="round"/><path d="M15 2c8 6 10 18 9 34l-1 9.4H7l-1-9.4C5 20 7 8 15 2z" fill="#F4F4F8" stroke="#1A0F45" stroke-width="2" stroke-linejoin="round" stroke-linecap="round"/><path d="M15 2c4 3 6.4 7 7.6 11H7.4C8.6 9 11 5 15 2z" fill="#B266FF" stroke="#1A0F45" stroke-width="1.5" stroke-linejoin="round" stroke-linecap="round"/><circle cx="15" cy="21" r="4.6" fill="#5BC0EB" stroke="#1A0F45" stroke-width="1.5" stroke-linejoin="round" stroke-linecap="round"/></g></g><g id="o4"><g transform="translate(113.1 92.8) scale(0.963 0.963) translate(-25 -15)"><path d="M14 15h22" stroke="#1A0F45" stroke-width="2.4"/><rect x="1" y="8" width="14" height="15" fill="#FFC93C" stroke="#1A0F45" stroke-width="2" stroke-linejoin="round" stroke-linecap="round"/><path d="M8 8v15M1 15.5h14" stroke="#1A0F45" stroke-width="1.2"/><rect x="35" y="8" width="14" height="15" fill="#FFC93C" stroke="#1A0F45" stroke-width="2" stroke-linejoin="round" stroke-linecap="round"/><path d="M42 8v15M35 15.5h14" stroke="#1A0F45" stroke-width="1.2"/><rect x="17.6" y="6.4" width="14.8" height="18" rx="3" fill="#E6E3F0" stroke="#1A0F45" stroke-width="2" stroke-linejoin="round" stroke-linecap="round"/><circle cx="25" cy="15.4" r="3" fill="#5BC0EB" stroke="#1A0F45" stroke-width="1.3" stroke-linejoin="round" stroke-linecap="round"/></g></g><g id="o5"><g transform="translate(229.4 109.5) scale(0.984 0.984) translate(-28 -16)"><path d="M16 15a12 11 0 0 1 24 0z" fill="#BDEBFF" stroke="#1A0F45" stroke-width="2" stroke-linejoin="round" stroke-linecap="round"/><ellipse cx="23" cy="9" rx="2.4" ry="3.6" transform="rotate(30 23 9)" fill="#fff" opacity=".6"/><ellipse cx="28" cy="18" rx="26" ry="7.6" fill="#3DBE5A" stroke="#1A0F45" stroke-width="2" stroke-linejoin="round" stroke-linecap="round"/><path d="M10 20c10 4 26 4 36 0" fill="none" stroke="#1A0F45" stroke-width="1.3" opacity=".6"/><path d="M22 25l-3 5M34 25l3 5" stroke="#1A0F45" stroke-width="2" stroke-linecap="round"/></g></g><g id="o6"><g transform="translate(280.5 131.4) scale(0.933 0.933) translate(-14 -14)"><path d="M14.0 1.8L17.4 10.3L26.6 10.9L19.5 16.8L21.8 25.7L14.0 20.8L6.2 25.7L8.5 16.8L1.4 10.9L10.6 10.3z" fill="#7CCBFF" stroke="#1A0F45" stroke-width="2" stroke-linejoin="round" stroke-linecap="round"/><path d="M14.0 9.0L15.5 12.9L19.7 13.1L16.5 15.8L17.5 19.9L14.0 17.6L10.5 19.9L11.5 15.8L8.3 13.1L12.5 12.9z" fill="#fff" opacity=".6"/></g></g><g id="o7"><g transform="translate(129.1 135.9) scale(0.905 0.905) translate(-17 -14)"><path d="M5 14C3 7 10 2 17 3c7-2 14 2 14 9 2 7-4 13-12 13C10 26 4 21 5 14z" fill="#C9824A" stroke="#1A0F45" stroke-width="2" stroke-linejoin="round" stroke-linecap="round"/><ellipse cx="11" cy="9" rx="2" ry="3" transform="rotate(30 11 9)" fill="#fff" opacity=".6"/></g></g><g id="o8"><g transform="translate(29.9 150.8) scale(1.023 1.023) translate(-17 -14)"><path d="M5 14C3 7 10 2 17 3c7-2 14 2 14 9 2 7-4 13-12 13C10 26 4 21 5 14z" fill="#C9824A" stroke="#1A0F45" stroke-width="2" stroke-linejoin="round" stroke-linecap="round"/><ellipse cx="11" cy="9" rx="2" ry="3" transform="rotate(30 11 9)" fill="#fff" opacity=".6"/></g></g><g id="o9"><g transform="translate(77.2 151.0) scale(-1.083 1.083) translate(-20 -20)"><path d="M26 3A18 18 0 1 0 37.6 31 14 14 0 1 1 26 3z" fill="#FFE27A" stroke="#1A0F45" stroke-width="2" stroke-linejoin="round" stroke-linecap="round"/><circle cx="10.6" cy="18" r="3.2" fill="#1A0F45" opacity=".2"/><circle cx="15" cy="29" r="2.6" fill="#1A0F45" opacity=".2"/><circle cx="20" cy="9.6" r="2" fill="#1A0F45" opacity=".2"/></g></g><g id="o10"><g transform="translate(193.1 162.1) scale(0.931 0.931) translate(-25 -25)"><ellipse cx="25" cy="25" rx="24" ry="6.4" transform="rotate(-16 25 25)" fill="none" stroke="#1A0F45" stroke-width="5.6"/><ellipse cx="25" cy="25" rx="24" ry="6.4" transform="rotate(-16 25 25)" fill="none" stroke="#FFE27A" stroke-width="2.6"/><circle cx="25" cy="25" r="15" fill="#4B8BFF" stroke="#1A0F45" stroke-width="2" stroke-linejoin="round" stroke-linecap="round"/><path d="M12 21c8 3 18 3 26-1" fill="none" stroke="#fff" stroke-width="2.6" opacity=".55"/><ellipse cx="19" cy="17" rx="3" ry="4.6" transform="rotate(35 19 17)" fill="#fff" opacity=".6"/><path d="M48.1 18.4A24 6.4 -16 0 1 1.9 31.6" fill="none" stroke="#1A0F45" stroke-width="5.6"/><path d="M48.1 18.4A24 6.4 -16 0 1 1.9 31.6" fill="none" stroke="#FFE27A" stroke-width="2.6"/></g></g><g id="o11"><g transform="translate(37.5 193.3) scale(0.976 0.976) translate(-28 -16)"><path d="M16 15a12 11 0 0 1 24 0z" fill="#BDEBFF" stroke="#1A0F45" stroke-width="2" stroke-linejoin="round" stroke-linecap="round"/><ellipse cx="23" cy="9" rx="2.4" ry="3.6" transform="rotate(30 23 9)" fill="#fff" opacity=".6"/><ellipse cx="28" cy="18" rx="26" ry="7.6" fill="#B266FF" stroke="#1A0F45" stroke-width="2" stroke-linejoin="round" stroke-linecap="round"/><path d="M10 20c10 4 26 4 36 0" fill="none" stroke="#1A0F45" stroke-width="1.3" opacity=".6"/><path d="M22 25l-3 5M34 25l3 5" stroke="#1A0F45" stroke-width="2" stroke-linecap="round"/></g></g><g id="o12"><g transform="translate(238.1 198.0) scale(0.951 0.951) translate(-14 -14)"><path d="M14.0 1.8L17.4 10.3L26.6 10.9L19.5 16.8L21.8 25.7L14.0 20.8L6.2 25.7L8.5 16.8L1.4 10.9L10.6 10.3z" fill="#FF8FC8" stroke="#1A0F45" stroke-width="2" stroke-linejoin="round" stroke-linecap="round"/><path d="M14.0 9.0L15.5 12.9L19.7 13.1L16.5 15.8L17.5 19.9L14.0 17.6L10.5 19.9L11.5 15.8L8.3 13.1L12.5 12.9z" fill="#fff" opacity=".6"/></g></g><g id="o13"><g transform="translate(279.1 182.7) scale(1.047 1.047) translate(-15 -29)"><path d="M7.4 30L1 42v5l8.4-4zM22.6 30L29 42v5l-8.4-4z" fill="#B266FF" stroke="#1A0F45" stroke-width="2" stroke-linejoin="round" stroke-linecap="round"/><path d="M15 2c8 6 10 18 9 34l-1 9.4H7l-1-9.4C5 20 7 8 15 2z" fill="#F4F4F8" stroke="#1A0F45" stroke-width="2" stroke-linejoin="round" stroke-linecap="round"/><path d="M15 2c4 3 6.4 7 7.6 11H7.4C8.6 9 11 5 15 2z" fill="#B266FF" stroke="#1A0F45" stroke-width="1.5" stroke-linejoin="round" stroke-linecap="round"/><circle cx="15" cy="21" r="4.6" fill="#5BC0EB" stroke="#1A0F45" stroke-width="1.5" stroke-linejoin="round" stroke-linecap="round"/><circle cx="15" cy="33" r="3.4" fill="#5BC0EB" stroke="#1A0F45" stroke-width="1.5" stroke-linejoin="round" stroke-linecap="round"/></g></g><g id="o14"><g transform="translate(102.0 206.9) scale(1.108 1.108) translate(-27 -13)"><path d="M13 5L53 1 36 13 53 25 13 21z" fill="#7CCBFF" opacity=".55" stroke="#1A0F45" stroke-width="1.5" stroke-linejoin="round" stroke-linecap="round"/><circle cx="13" cy="13" r="10" fill="#7CCBFF" stroke="#1A0F45" stroke-width="2" stroke-linejoin="round" stroke-linecap="round"/><ellipse cx="9.6" cy="9.6" rx="2.6" ry="3.6" transform="rotate(40 9.6 9.6)" fill="#fff" opacity=".6"/></g></g><rect width="320" height="240" fill="url(#lt)"/><rect width="320" height="240" fill="url(#vg)"/><rect x=".75" y=".75" width="318.5" height="238.5" rx="6" fill="none" stroke="#1A0F45" stroke-width="1.5" opacity=".35"/></g></svg>