<svg xmlns="http://www.w3.org/2000/svg" viewBox="0 0 320 240" width="1600" height="1200"><defs><clipPath id="c"><rect width="320" height="240"/></clipPath></defs><g clip-path="url(#c)"><defs>
    <radialGradient id="lt" cx=".25" cy=".12" r=".9"><stop offset="0" stop-color="#fff" stop-opacity="0.38"/><stop offset=".55" stop-color="#fff" stop-opacity="0"/></radialGradient>
    <linearGradient id="vg" x1="0" y1="0" x2="0" y2="1"><stop offset=".62" stop-color="#1A0F45" stop-opacity="0"/><stop offset="1" stop-color="#1A0F45" stop-opacity="0.16"/></linearGradient>
    <filter id="sm" x="-30%" y="-30%" width="160%" height="160%"><feGaussianBlur stdDeviation="1.6"/></filter></defs><rect width="320" height="240" fill="#CFE6F5"/><rect y="97" width="320" height="49" fill="#EADFC8"/><path d="M0 112H320M0 125H320M0 138H320M12 99v13M40 99v13M68 99v13M96 99v13M124 99v13M152 99v13M180 99v13M208 99v13M236 99v13M264 99v13M292 99v13M-2 112v13M26 112v13M54 112v13M82 112v13M110 112v13M138 112v13M166 112v13M194 112v13M222 112v13M250 112v13M278 112v13M306 112v13M12 125v13M40 125v13M68 125v13M96 125v13M124 125v13M152 125v13M180 125v13M208 125v13M236 125v13M264 125v13M292 125v13M-1 138v13M27 138v13M55 138v13M83 138v13M111 138v13M139 138v13M167 138v13M195 138v13M223 138v13M251 138v13M279 138v13M307 138v13" stroke="#CDBE9E" stroke-width="1.6"/>
          <path d="M0 85Q160 77 320 85V97H0z" fill="#4A4E6A"/><path d="M-6 95q6 6 12 0M6 95q6 6 12 0M18 95q6 6 12 0M30 95q6 6 12 0M42 95q6 6 12 0M54 95q6 6 12 0M66 95q6 6 12 0M78 95q6 6 12 0M90 95q6 6 12 0M102 95q6 6 12 0M114 95q6 6 12 0M126 95q6 6 12 0M138 95q6 6 12 0M150 95q6 6 12 0M162 95q6 6 12 0M174 95q6 6 12 0M186 95q6 6 12 0M198 95q6 6 12 0M210 95q6 6 12 0M222 95q6 6 12 0M234 95q6 6 12 0M246 95q6 6 12 0M258 95q6 6 12 0M270 95q6 6 12 0M282 95q6 6 12 0M294 95q6 6 12 0M306 95q6 6 12 0M318 95q6 6 12 0M330 95q6 6 12 0" fill="none" stroke="#7C819E" stroke-width="2"/><path d="M0 97H320" stroke="#1A0F45" stroke-width="2"/>
          <rect y="146" width="320" height="94" fill="#D9CBB0"/><path d="M0 146H320" stroke="#1A0F45" stroke-width="2"/><path d="M0 196c50-6 110 6 170 0s110-8 150-2" fill="none" stroke="#C4B38F" stroke-width="2.4"/><circle cx="202.8" cy="187.4" r="1.3" fill="#B9A27F" opacity=".35"/><circle cx="169.6" cy="143.6" r="1.1" fill="#B9A27F" opacity=".35"/><circle cx="162.0" cy="173.4" r="1.4" fill="#B9A27F" opacity=".35"/><circle cx="156.0" cy="146.6" r="1.1" fill="#B9A27F" opacity=".35"/><circle cx="170.3" cy="162.3" r="1.2" fill="#B9A27F" opacity=".35"/><circle cx="179.0" cy="197.8" r="1.1" fill="#B9A27F" opacity=".35"/><circle cx="16.8" cy="197.2" r="1.2" fill="#B9A27F" opacity=".35"/><circle cx="114.2" cy="177.4" r="1.2" fill="#B9A27F" opacity=".35"/><circle cx="193.9" cy="182.5" r="0.9" fill="#B9A27F" opacity=".35"/><circle cx="277.9" cy="167.0" r="1.1" fill="#B9A27F" opacity=".35"/><circle cx="72.9" cy="147.5" r="1.0" fill="#B9A27F" opacity=".35"/><circle cx="302.1" cy="162.3" r="0.8" fill="#B9A27F" opacity=".35"/><circle cx="249.8" cy="194.8" r="0.8" fill="#B9A27F" opacity=".35"/><circle cx="195.3" cy="196.8" r="1.2" fill="#B9A27F" opacity=".35"/><circle cx="313.1" cy="162.0" r="1.4" fill="#B9A27F" opacity=".35"/><circle cx="312.3" cy="221.5" r="1.4" fill="#B9A27F" opacity=".35"/><circle cx="159.8" cy="180.1" r="1.3" fill="#B9A27F" opacity=".35"/><circle cx="159.7" cy="169.1" r="1.2" fill="#B9A27F" opacity=".35"/><circle cx="292.2" cy="235.8" r="1.4" fill="#B9A27F" opacity=".35"/><circle cx="135.4" cy="165.0" r="1.0" fill="#B9A27F" opacity=".35"/><circle cx="248.9" cy="215.5" r="1.1" fill="#B9A27F" opacity=".35"/><circle cx="81.2" cy="215.1" r="1.3" fill="#B9A27F" opacity=".35"/><circle cx="15.4" cy="176.6" r="0.8" fill="#B9A27F" opacity=".35"/><circle cx="113.0" cy="144.5" r="1.3" fill="#B9A27F" opacity=".35"/><circle cx="26.8" cy="194.6" r="1.1" fill="#B9A27F" opacity=".35"/><circle cx="151.2" cy="170.1" r="1.0" fill="#B9A27F" opacity=".35"/><circle cx="243.4" cy="196.5" r="0.9" fill="#B9A27F" opacity=".35"/><circle cx="232.2" cy="228.9" r="1.5" fill="#B9A27F" opacity=".35"/><circle cx="202.9" cy="201.7" r="1.3" fill="#B9A27F" opacity=".35"/><circle cx="74.4" cy="170.1" r="0.7" fill="#B9A27F" opacity=".35"/><circle cx="313.8" cy="233.6" r="1.5" fill="#B9A27F" opacity=".35"/><circle cx="40.4" cy="165.8" r="1.1" fill="#B9A27F" opacity=".35"/><circle cx="148.5" cy="235.7" r="0.9" fill="#B9A27F" opacity=".35"/><circle cx="180.4" cy="174.6" r="0.9" fill="#B9A27F" opacity=".35"/><circle cx="167.9" cy="231.9" r="1.3" fill="#B9A27F" opacity=".35"/><circle cx="26.7" cy="158.2" r="0.7" fill="#B9A27F" opacity=".35"/><circle cx="152.3" cy="174.2" r="1.1" fill="#B9A27F" opacity=".35"/><circle cx="139.0" cy="207.5" r="1.4" fill="#B9A27F" opacity=".35"/><circle cx="74.3" cy="216.6" r="1.4" fill="#B9A27F" opacity=".35"/><circle cx="79.8" cy="161.4" r="0.9" fill="#B9A27F" opacity=".35"/><circle cx="119.6" cy="199.0" r="1.0" fill="#B9A27F" opacity=".35"/><circle cx="106.1" cy="210.0" r="0.8" fill="#B9A27F" opacity=".35"/><circle cx="226.2" cy="226.3" r="0.9" fill="#B9A27F" opacity=".35"/><circle cx="253.5" cy="227.5" r="1.0" fill="#B9A27F" opacity=".35"/><circle cx="148.4" cy="160.5" r="1.1" fill="#B9A27F" opacity=".35"/><circle cx="11.9" cy="167.8" r="1.4" fill="#B9A27F" opacity=".35"/><g id="o0"><g transform="translate(295.0 18.0) scale(0.992 0.992) translate(-15 -11)"><path d="M3 13c0-5 5-8 11-7 3-4 9-4 11 1l4 1.5-4 1.8c0 6-6 10.7-13 10.7-6 0-9-3-9-8z" fill="#B266FF" stroke="#1A0F45" stroke-width="2" stroke-linejoin="round" stroke-linecap="round"/><path d="M7 12c4-1 8 1 9 5-5 1-8-1-9-5z" fill="#fff" opacity=".7" stroke="#1A0F45" stroke-width="1.2" stroke-linejoin="round" stroke-linecap="round"/><circle cx="21" cy="8" r="1.5" fill="#1A0F45"/><path d="M25.5 7.4l4 1.6-4 1.6z" fill="#FFB020" stroke="#1A0F45" stroke-width="1.2" stroke-linejoin="round" stroke-linecap="round"/></g></g><g id="o1"><g transform="translate(230.9 27.1) scale(1.009 1.009) translate(-30 -15)"><circle cx="15" cy="18" r="10" fill="#FFC2DD" stroke="#1A0F45" stroke-width="2" stroke-linejoin="round" stroke-linecap="round"/><circle cx="30" cy="13" r="12" fill="#FFC2DD" stroke="#1A0F45" stroke-width="2" stroke-linejoin="round" stroke-linecap="round"/><circle cx="45" cy="18" r="10" fill="#FFC2DD" stroke="#1A0F45" stroke-width="2" stroke-linejoin="round" stroke-linecap="round"/><circle cx="15" cy="18" r="8.9" fill="#FFC2DD"/><circle cx="30" cy="13" r="10.9" fill="#FFC2DD"/><circle cx="45" cy="18" r="8.9" fill="#FFC2DD"/><rect x="15" y="17" width="30" height="11" fill="#FFC2DD"/><path d="M15 28h30" stroke="#1A0F45" stroke-width="2"/></g></g><g id="o2"><g transform="translate(89.8 28.3) scale(1.140 1.140) translate(-30 -15)"><circle cx="15" cy="18" r="10" fill="#FFC2DD" stroke="#1A0F45" stroke-width="2" stroke-linejoin="round" stroke-linecap="round"/><circle cx="30" cy="13" r="12" fill="#FFC2DD" stroke="#1A0F45" stroke-width="2" stroke-linejoin="round" stroke-linecap="round"/><circle cx="45" cy="18" r="10" fill="#FFC2DD" stroke="#1A0F45" stroke-width="2" stroke-linejoin="round" stroke-linecap="round"/><circle cx="15" cy="18" r="8.9" fill="#FFC2DD"/><circle cx="30" cy="13" r="10.9" fill="#FFC2DD"/><circle cx="45" cy="18" r="8.9" fill="#FFC2DD"/><rect x="15" y="17" width="30" height="11" fill="#FFC2DD"/><path d="M15 28h30" stroke="#1A0F45" stroke-width="2"/></g></g><g id="o3"><rect width=".1" height=".1" opacity="0"/></g><g id="o4"><g transform="translate(27.8 43.4) scale(0.950 0.950) translate(-20 -20)"><path d="M17.6 1.5h4.8L20 9z" transform="rotate(0 20 20)" fill="#FFE27A" stroke="#1A0F45" stroke-width="1.5" stroke-linejoin="round" stroke-linecap="round"/><path d="M17.6 1.5h4.8L20 9z" transform="rotate(45 20 20)" fill="#FFE27A" stroke="#1A0F45" stroke-width="1.5" stroke-linejoin="round" stroke-linecap="round"/><path d="M17.6 1.5h4.8L20 9z" transform="rotate(90 20 20)" fill="#FFE27A" stroke="#1A0F45" stroke-width="1.5" stroke-linejoin="round" stroke-linecap="round"/><path d="M17.6 1.5h4.8L20 9z" transform="rotate(135 20 20)" fill="#FFE27A" stroke="#1A0F45" stroke-width="1.5" stroke-linejoin="round" stroke-linecap="round"/><path d="M17.6 1.5h4.8L20 9z" transform="rotate(180 20 20)" fill="#FFE27A" stroke="#1A0F45" stroke-width="1.5" stroke-linejoin="round" stroke-linecap="round"/><path d="M17.6 1.5h4.8L20 9z" transform="rotate(225 20 20)" fill="#FFE27A" stroke="#1A0F45" stroke-width="1.5" stroke-linejoin="round" stroke-linecap="round"/><path d="M17.6 1.5h4.8L20 9z" transform="rotate(270 20 20)" fill="#FFE27A" stroke="#1A0F45" stroke-width="1.5" stroke-linejoin="round" stroke-linecap="round"/><path d="M17.6 1.5h4.8L20 9z" transform="rotate(315 20 20)" fill="#FFE27A" stroke="#1A0F45" stroke-width="1.5" stroke-linejoin="round" stroke-linecap="round"/><circle cx="20" cy="20" r="11" fill="#FF7A3D" stroke="#1A0F45" stroke-width="2" stroke-linejoin="round" stroke-linecap="round"/><ellipse cx="16" cy="15" rx="2.6" ry="4" transform="rotate(30 16 15)" fill="#fff" opacity=".6"/></g></g><g id="o5"><ellipse cx="41.1" cy="150.5" rx="21.9" ry="3.8" fill="#1A0F45" opacity=".16" filter="url(#sm)"/><g transform="translate(41.1 132.0) scale(1.080 1.080) translate(-22 -18)"><path d="M9 30c-7-2-8-12-2-15" fill="none" stroke="#1A0F45" stroke-width="6.4" stroke-linecap="round"/><path d="M9 30c-7-2-8-12-2-15" fill="none" stroke="#7E7896" stroke-width="3.2" stroke-linecap="round"/><ellipse cx="18" cy="26" rx="13" ry="8.6" fill="#7E7896" stroke="#1A0F45" stroke-width="2" stroke-linejoin="round" stroke-linecap="round"/><path d="M13 19l2 5.4M18 18l.8 5.6M23 18.4l-.4 5.4" stroke="#1A0F45" stroke-width="2" stroke-linecap="round" opacity=".7"/><ellipse cx="12" cy="34" rx="3.6" ry="2" fill="#7E7896" stroke="#1A0F45" stroke-width="1.4" stroke-linejoin="round" stroke-linecap="round"/><ellipse cx="23" cy="34" rx="3.6" ry="2" fill="#7E7896" stroke="#1A0F45" stroke-width="1.4" stroke-linejoin="round" stroke-linecap="round"/><path d="M24 9l1-8 7 5zM34 6l6-5 1 9z" fill="#7E7896" stroke="#1A0F45" stroke-width="2" stroke-linejoin="round" stroke-linecap="round"/><circle cx="32" cy="15" r="10" fill="#7E7896" stroke="#1A0F45" stroke-width="2" stroke-linejoin="round" stroke-linecap="round"/><circle cx="28.6" cy="14" r="1.5" fill="#1A0F45"/><circle cx="36" cy="14" r="1.5" fill="#1A0F45"/><path d="M31.4 18l1 1 1-1" fill="none" stroke="#1A0F45" stroke-width="1.2" stroke-linejoin="round" stroke-linecap="round"/><circle cx="27" cy="18" r="1.8" fill="#FF8FB0" opacity=".7"/></g></g><g id="o6"><ellipse cx="298.6" cy="159.0" rx="15.4" ry="3.0" fill="#1A0F45" opacity=".16" filter="url(#sm)"/><g transform="translate(298.6 143.3) scale(0.929 0.929) translate(-18 -18)"><path d="M9 9C1 15 1 31 9 34h18c8-3 8-19 0-25z" fill="#9A5233" stroke="#1A0F45" stroke-width="2" stroke-linejoin="round" stroke-linecap="round"/><ellipse cx="11" cy="20" rx="2.4" ry="6" transform="rotate(10 11 20)" fill="#fff" opacity=".6"/><ellipse cx="18" cy="9" rx="9.6" ry="3" fill="#3A2A2A" stroke="#1A0F45" stroke-width="2" stroke-linejoin="round" stroke-linecap="round"/></g></g><g id="o7"><ellipse cx="239.3" cy="179.7" rx="26.5" ry="4.6" fill="#1A0F45" opacity=".16" filter="url(#sm)"/><g transform="translate(239.3 149.0) scale(0.961 0.961) translate(-30 -33)"><rect x="5" y="18" width="7" height="47" fill="#9A5B2E" stroke="#1A0F45" stroke-width="2" stroke-linejoin="round" stroke-linecap="round"/><rect x="48" y="18" width="7" height="47" fill="#9A5B2E" stroke="#1A0F45" stroke-width="2" stroke-linejoin="round" stroke-linecap="round"/><rect x="12" y="22" width="18" height="43" fill="#E8503A" stroke="#1A0F45" stroke-width="2" stroke-linejoin="round" stroke-linecap="round"/><rect x="30" y="22" width="18" height="43" fill="#E8503A" stroke="#1A0F45" stroke-width="2" stroke-linejoin="round" stroke-linecap="round"/><path d="M15 34h12M15 52h12M33 34h12M33 52h12" stroke="#1A0F45" stroke-width="1.4" opacity=".55"/><circle cx="26" cy="43" r="3.4" fill="none" stroke="#1A0F45" stroke-width="4"/><circle cx="26" cy="43" r="3.4" fill="none" stroke="#FFC93C" stroke-width="2"/><circle cx="34" cy="43" r="3.4" fill="none" stroke="#1A0F45" stroke-width="4"/><circle cx="34" cy="43" r="3.4" fill="none" stroke="#FFC93C" stroke-width="2"/><path d="M1 18C14 15 22 3 30 3s16 12 29 15l-2 5H3z" fill="#4A4E6A" stroke="#1A0F45" stroke-width="2" stroke-linejoin="round" stroke-linecap="round"/><path d="M9 18.6c2 2 4 2 6 0M18 17.6c2 2 4 2 6 0M27 17.4c2 2 4 2 6 0M36 17.6c2 2 4 2 6 0M45 18.6c2 2 4 2 6 0" fill="none" stroke="#fff" stroke-width="1.4" opacity=".6"/><rect x="49" y="27" width="5" height="14" rx="1" fill="#FFF1D6" stroke="#1A0F45" stroke-width="1.2" stroke-linejoin="round" stroke-linecap="round"/></g></g><g id="o8"><ellipse cx="111.7" cy="205.7" rx="16.8" ry="3.0" fill="#1A0F45" opacity=".16" filter="url(#sm)"/><g transform="translate(111.7 182.3) scale(1.014 1.014) translate(-18 -24)"><path d="M18 30C10 26 5 18 7 10c7 3 11 10 11 20z" fill="#3DBE5A" stroke="#1A0F45" stroke-width="1.5" stroke-linejoin="round" stroke-linecap="round"/><path d="M18 30c8-4 13-12 11-20-7 3-11 10-11 20z" fill="#2EAA4A" stroke="#1A0F45" stroke-width="1.5" stroke-linejoin="round" stroke-linecap="round"/><path d="M18 30c-3-7-2-14 0-20 2 6 3 13 0 20z" fill="#5BD06A" stroke="#1A0F45" stroke-width="1.5" stroke-linejoin="round" stroke-linecap="round"/><path d="M7 31h22l-3 16H10z" fill="#B266FF" stroke="#1A0F45" stroke-width="2" stroke-linejoin="round" stroke-linecap="round"/><rect x="5" y="28" width="26" height="5.4" rx="2" fill="#B266FF" stroke="#1A0F45" stroke-width="2" stroke-linejoin="round" stroke-linecap="round"/></g></g><g id="o9"><rect width=".1" height=".1" opacity="0"/></g><g id="o10"><ellipse cx="197.9" cy="224.5" rx="10.9" ry="3.0" fill="#1A0F45" opacity=".16" filter="url(#sm)"/><g transform="translate(197.9 206.7) scale(0.987 0.987) translate(-12 -19)"><path d="M12 18V38" stroke="#2EAA4A" stroke-width="3" stroke-linecap="round"/><path d="M12 31c-6 0-9-4-9-7 5 0 9 3 9 7z" fill="#3DBE5A" stroke="#1A0F45" stroke-width="1.3" stroke-linejoin="round" stroke-linecap="round"/><path d="M12 27c6 0 9-4 9-7-5 0-9 3-9 7z" fill="#3DBE5A" stroke="#1A0F45" stroke-width="1.3" stroke-linejoin="round" stroke-linecap="round"/><ellipse cx="12" cy="6.2" rx="4.6" ry="6" transform="rotate(0 12 12)" fill="#FF5A5F" stroke="#1A0F45" stroke-width="1.4" stroke-linejoin="round" stroke-linecap="round"/><ellipse cx="12" cy="6.2" rx="4.6" ry="6" transform="rotate(72 12 12)" fill="#FF5A5F" stroke="#1A0F45" stroke-width="1.4" stroke-linejoin="round" stroke-linecap="round"/><ellipse cx="12" cy="6.2" rx="4.6" ry="6" transform="rotate(144 12 12)" fill="#FF5A5F" stroke="#1A0F45" stroke-width="1.4" stroke-linejoin="round" stroke-linecap="round"/><ellipse cx="12" cy="6.2" rx="4.6" ry="6" transform="rotate(216 12 12)" fill="#FF5A5F" stroke="#1A0F45" stroke-width="1.4" stroke-linejoin="round" stroke-linecap="round"/><ellipse cx="12" cy="6.2" rx="4.6" ry="6" transform="rotate(288 12 12)" fill="#FF5A5F" stroke="#1A0F45" stroke-width="1.4" stroke-linejoin="round" stroke-linecap="round"/><circle cx="12" cy="12" r="3.6" fill="#FFE27A" stroke="#1A0F45" stroke-width="1.3" stroke-linejoin="round" stroke-linecap="round"/></g></g><g id="o11"><ellipse cx="252.4" cy="228.7" rx="29.5" ry="5.1" fill="#1A0F45" opacity=".16" filter="url(#sm)"/><g transform="translate(252.4 208.0) scale(-1.146 1.146) translate(-28 -19)"><circle cx="12" cy="27" r="9.4" fill="#fff" fill-opacity=".35" stroke="#1A0F45" stroke-width="2.6"/><circle cx="44" cy="27" r="9.4" fill="#fff" fill-opacity=".35" stroke="#1A0F45" stroke-width="2.6"/><path d="M12 27l10-12h16l6 12M22 15l7 12H12M29 27l9-12M38 15l-1-6" fill="none" stroke="#1A0F45" stroke-width="5.6" stroke-linejoin="round" stroke-linecap="round"/><path d="M12 27l10-12h16l6 12M22 15l7 12H12M29 27l9-12M38 15l-1-6" fill="none" stroke="#4B8BFF" stroke-width="2.6" stroke-linejoin="round" stroke-linecap="round"/><rect x="16" y="9" width="11" height="4" rx="2" fill="#5A5470" stroke="#1A0F45" stroke-width="1.5" stroke-linejoin="round" stroke-linecap="round"/><path d="M33 9h8" stroke="#1A0F45" stroke-width="2.6" stroke-linecap="round"/><path d="M40 11h14l-2 9H42z" fill="#C9824A" stroke="#1A0F45" stroke-width="1.5" stroke-linejoin="round" stroke-linecap="round"/><path d="M43 14h9M46.6 11v9" stroke="#1A0F45" stroke-width="1.1" opacity=".6"/></g></g><g id="o12"><ellipse cx="160.0" cy="229.3" rx="18.1" ry="3.2" fill="#1A0F45" opacity=".16" filter="url(#sm)"/><g transform="translate(160.0 165.4) scale(1.159 1.159) translate(-17 -56)"><rect x="14" y="4" width="6" height="108" rx="2" fill="#C9824A" stroke="#1A0F45" stroke-width="2" stroke-linejoin="round" stroke-linecap="round"/><rect x="2" y="13" width="30" height="4.4" rx="1.6" fill="#5A5470" stroke="#1A0F45" stroke-width="1.5" stroke-linejoin="round" stroke-linecap="round"/><circle cx="5" cy="10" r="2.6" fill="#fff" stroke="#1A0F45" stroke-width="1.2" stroke-linejoin="round" stroke-linecap="round"/><circle cx="29" cy="10" r="2.6" fill="#fff" stroke="#1A0F45" stroke-width="1.2" stroke-linejoin="round" stroke-linecap="round"/><path d="M20 32h9v4" fill="none" stroke="#1A0F45" stroke-width="2.4"/><path d="M23 36h12l-2.6 6h-6.8z" transform="translate(-2 0)" fill="#5A5470" stroke="#1A0F45" stroke-width="1.5" stroke-linejoin="round" stroke-linecap="round"/><circle cx="27" cy="43.6" r="2.6" fill="#FFE27A" stroke="#1A0F45" stroke-width="1.2" stroke-linejoin="round" stroke-linecap="round"/><rect x="10" y="60" width="14" height="16" rx="1.4" fill="#FFE27A" stroke="#1A0F45" stroke-width="1.5" stroke-linejoin="round" stroke-linecap="round"/><path d="M13 65h8M13 70h6" stroke="#1A0F45" stroke-width="1.6" stroke-linecap="round"/></g></g><rect width="320" height="240" fill="url(#lt)"/><rect width="320" height="240" fill="url(#vg)"/><rect x=".75" y=".75" width="318.5" height="238.5" rx="6" fill="none" stroke="#1A0F45" stroke-width="1.5" opacity=".35"/></g></svg>