<svg xmlns="http://www.w3.org/2000/svg" viewBox="0 0 320 240" width="1600" height="1200"><defs><clipPath id="c"><rect width="320" height="240"/></clipPath></defs><g clip-path="url(#c)"><defs>
    <radialGradient id="lt" cx=".25" cy=".12" r=".9"><stop offset="0" stop-color="#fff" stop-opacity="0.38"/><stop offset=".55" stop-color="#fff" stop-opacity="0"/></radialGradient>
    <linearGradient id="vg" x1="0" y1="0" x2="0" y2="1"><stop offset=".62" stop-color="#1A0F45" stop-opacity="0"/><stop offset="1" stop-color="#1A0F45" stop-opacity="0.16"/></linearGradient>
    <filter id="sm" x="-30%" y="-30%" width="160%" height="160%"><feGaussianBlur stdDeviation="1.6"/></filter></defs><rect width="320" height="240" fill="#BFE8FF"/><rect y="70" width="320" height="50" fill="#D6F1FF"/><ellipse cx="113" cy="114" rx="68" ry="23" fill="#B9E8A0"/><ellipse cx="69" cy="114" rx="67" ry="19" fill="#B9E8A0"/><ellipse cx="154" cy="114" rx="90" ry="19" fill="#B9E8A0"/><rect y="112" width="320" height="128" fill="#94DB72"/><path d="M0 190c60-14 120 14 180 0s100-12 140 2v18c-40-12-80-10-140 0S60 194 0 206z" fill="#F3E3B5" opacity=".9"/><path d="M0 112h320" stroke="#7CC35E" stroke-width="2"/><path d="M188.8 190.7l-1.6-4.2M188.8 190.7l.2-5M188.8 190.7l1.8-4" stroke="#4E9E3A" stroke-width="1" stroke-linecap="round" opacity=".28"/><path d="M17.7 218.5l-1.6-4.2M17.7 218.5l.2-5M17.7 218.5l1.8-4" stroke="#4E9E3A" stroke-width="1" stroke-linecap="round" opacity=".28"/><path d="M88.6 155.9l-1.6-4.2M88.6 155.9l.2-5M88.6 155.9l1.8-4" stroke="#4E9E3A" stroke-width="1" stroke-linecap="round" opacity=".28"/><path d="M234.6 136.5l-1.6-4.2M234.6 136.5l.2-5M234.6 136.5l1.8-4" stroke="#4E9E3A" stroke-width="1" stroke-linecap="round" opacity=".28"/><path d="M285.6 183.4l-1.6-4.2M285.6 183.4l.2-5M285.6 183.4l1.8-4" stroke="#4E9E3A" stroke-width="1" stroke-linecap="round" opacity=".28"/><path d="M74.5 219.2l-1.6-4.2M74.5 219.2l.2-5M74.5 219.2l1.8-4" stroke="#4E9E3A" stroke-width="1" stroke-linecap="round" opacity=".28"/><path d="M197.4 235.3l-1.6-4.2M197.4 235.3l.2-5M197.4 235.3l1.8-4" stroke="#4E9E3A" stroke-width="1" stroke-linecap="round" opacity=".28"/><path d="M164.4 167.8l-1.6-4.2M164.4 167.8l.2-5M164.4 167.8l1.8-4" stroke="#4E9E3A" stroke-width="1" stroke-linecap="round" opacity=".28"/><path d="M228.7 198.6l-1.6-4.2M228.7 198.6l.2-5M228.7 198.6l1.8-4" stroke="#4E9E3A" stroke-width="1" stroke-linecap="round" opacity=".28"/><path d="M310.3 210.9l-1.6-4.2M310.3 210.9l.2-5M310.3 210.9l1.8-4" stroke="#4E9E3A" stroke-width="1" stroke-linecap="round" opacity=".28"/><path d="M168.3 158.7l-1.6-4.2M168.3 158.7l.2-5M168.3 158.7l1.8-4" stroke="#4E9E3A" stroke-width="1" stroke-linecap="round" opacity=".28"/><path d="M88.1 215.5l-1.6-4.2M88.1 215.5l.2-5M88.1 215.5l1.8-4" stroke="#4E9E3A" stroke-width="1" stroke-linecap="round" opacity=".28"/><path d="M22.8 142.4l-1.6-4.2M22.8 142.4l.2-5M22.8 142.4l1.8-4" stroke="#4E9E3A" stroke-width="1" stroke-linecap="round" opacity=".28"/><path d="M134.4 156.2l-1.6-4.2M134.4 156.2l.2-5M134.4 156.2l1.8-4" stroke="#4E9E3A" stroke-width="1" stroke-linecap="round" opacity=".28"/><path d="M51.5 181.7l-1.6-4.2M51.5 181.7l.2-5M51.5 181.7l1.8-4" stroke="#4E9E3A" stroke-width="1" stroke-linecap="round" opacity=".28"/><path d="M44.4 136.7l-1.6-4.2M44.4 136.7l.2-5M44.4 136.7l1.8-4" stroke="#4E9E3A" stroke-width="1" stroke-linecap="round" opacity=".28"/><path d="M18.6 182.5l-1.6-4.2M18.6 182.5l.2-5M18.6 182.5l1.8-4" stroke="#4E9E3A" stroke-width="1" stroke-linecap="round" opacity=".28"/><path d="M49.5 162.1l-1.6-4.2M49.5 162.1l.2-5M49.5 162.1l1.8-4" stroke="#4E9E3A" stroke-width="1" stroke-linecap="round" opacity=".28"/><path d="M82.8 187.7l-1.6-4.2M82.8 187.7l.2-5M82.8 187.7l1.8-4" stroke="#4E9E3A" stroke-width="1" stroke-linecap="round" opacity=".28"/><path d="M213.7 168.0l-1.6-4.2M213.7 168.0l.2-5M213.7 168.0l1.8-4" stroke="#4E9E3A" stroke-width="1" stroke-linecap="round" opacity=".28"/><path d="M208.3 205.8l-1.6-4.2M208.3 205.8l.2-5M208.3 205.8l1.8-4" stroke="#4E9E3A" stroke-width="1" stroke-linecap="round" opacity=".28"/><path d="M261.8 197.0l-1.6-4.2M261.8 197.0l.2-5M261.8 197.0l1.8-4" stroke="#4E9E3A" stroke-width="1" stroke-linecap="round" opacity=".28"/><path d="M8.2 139.0l-1.6-4.2M8.2 139.0l.2-5M8.2 139.0l1.8-4" stroke="#4E9E3A" stroke-width="1" stroke-linecap="round" opacity=".28"/><path d="M66.2 157.4l-1.6-4.2M66.2 157.4l.2-5M66.2 157.4l1.8-4" stroke="#4E9E3A" stroke-width="1" stroke-linecap="round" opacity=".28"/><path d="M84.9 182.6l-1.6-4.2M84.9 182.6l.2-5M84.9 182.6l1.8-4" stroke="#4E9E3A" stroke-width="1" stroke-linecap="round" opacity=".28"/><path d="M24.8 217.2l-1.6-4.2M24.8 217.2l.2-5M24.8 217.2l1.8-4" stroke="#4E9E3A" stroke-width="1" stroke-linecap="round" opacity=".28"/><path d="M148.4 179.5l-1.6-4.2M148.4 179.5l.2-5M148.4 179.5l1.8-4" stroke="#4E9E3A" stroke-width="1" stroke-linecap="round" opacity=".28"/><path d="M248.7 168.7l-1.6-4.2M248.7 168.7l.2-5M248.7 168.7l1.8-4" stroke="#4E9E3A" stroke-width="1" stroke-linecap="round" opacity=".28"/><path d="M118.6 160.0l-1.6-4.2M118.6 160.0l.2-5M118.6 160.0l1.8-4" stroke="#4E9E3A" stroke-width="1" stroke-linecap="round" opacity=".28"/><path d="M17.7 231.1l-1.6-4.2M17.7 231.1l.2-5M17.7 231.1l1.8-4" stroke="#4E9E3A" stroke-width="1" stroke-linecap="round" opacity=".28"/><path d="M184.3 201.5l-1.6-4.2M184.3 201.5l.2-5M184.3 201.5l1.8-4" stroke="#4E9E3A" stroke-width="1" stroke-linecap="round" opacity=".28"/><path d="M63.1 141.3l-1.6-4.2M63.1 141.3l.2-5M63.1 141.3l1.8-4" stroke="#4E9E3A" stroke-width="1" stroke-linecap="round" opacity=".28"/><path d="M296.1 157.0l-1.6-4.2M296.1 157.0l.2-5M296.1 157.0l1.8-4" stroke="#4E9E3A" stroke-width="1" stroke-linecap="round" opacity=".28"/><path d="M53.5 233.7l-1.6-4.2M53.5 233.7l.2-5M53.5 233.7l1.8-4" stroke="#4E9E3A" stroke-width="1" stroke-linecap="round" opacity=".28"/><path d="M315.0 202.5l-1.6-4.2M315.0 202.5l.2-5M315.0 202.5l1.8-4" stroke="#4E9E3A" stroke-width="1" stroke-linecap="round" opacity=".28"/><path d="M65.6 232.7l-1.6-4.2M65.6 232.7l.2-5M65.6 232.7l1.8-4" stroke="#4E9E3A" stroke-width="1" stroke-linecap="round" opacity=".28"/><path d="M249.3 222.1l-1.6-4.2M249.3 222.1l.2-5M249.3 222.1l1.8-4" stroke="#4E9E3A" stroke-width="1" stroke-linecap="round" opacity=".28"/><path d="M232.6 229.6l-1.6-4.2M232.6 229.6l.2-5M232.6 229.6l1.8-4" stroke="#4E9E3A" stroke-width="1" stroke-linecap="round" opacity=".28"/><path d="M231.9 161.6l-1.6-4.2M231.9 161.6l.2-5M231.9 161.6l1.8-4" stroke="#4E9E3A" stroke-width="1" stroke-linecap="round" opacity=".28"/><path d="M182.7 151.4l-1.6-4.2M182.7 151.4l.2-5M182.7 151.4l1.8-4" stroke="#4E9E3A" stroke-width="1" stroke-linecap="round" opacity=".28"/><path d="M57.9 219.3l-1.6-4.2M57.9 219.3l.2-5M57.9 219.3l1.8-4" stroke="#4E9E3A" stroke-width="1" stroke-linecap="round" opacity=".28"/><path d="M282.0 187.3l-1.6-4.2M282.0 187.3l.2-5M282.0 187.3l1.8-4" stroke="#4E9E3A" stroke-width="1" stroke-linecap="round" opacity=".28"/><path d="M236.1 194.8l-1.6-4.2M236.1 194.8l.2-5M236.1 194.8l1.8-4" stroke="#4E9E3A" stroke-width="1" stroke-linecap="round" opacity=".28"/><path d="M204.8 191.3l-1.6-4.2M204.8 191.3l.2-5M204.8 191.3l1.8-4" stroke="#4E9E3A" stroke-width="1" stroke-linecap="round" opacity=".28"/><path d="M102.3 199.4l-1.6-4.2M102.3 199.4l.2-5M102.3 199.4l1.8-4" stroke="#4E9E3A" stroke-width="1" stroke-linecap="round" opacity=".28"/><path d="M94.7 174.9l-1.6-4.2M94.7 174.9l.2-5M94.7 174.9l1.8-4" stroke="#4E9E3A" stroke-width="1" stroke-linecap="round" opacity=".28"/><g id="o0"><g transform="translate(108.4 22.7) scale(1.032 1.032) translate(-30 -15)"><circle cx="15" cy="18" r="10" fill="#FFFFFF" stroke="#1A0F45" stroke-width="2" stroke-linejoin="round" stroke-linecap="round"/><circle cx="30" cy="13" r="12" fill="#FFFFFF" stroke="#1A0F45" stroke-width="2" stroke-linejoin="round" stroke-linecap="round"/><circle cx="45" cy="18" r="10" fill="#FFFFFF" stroke="#1A0F45" stroke-width="2" stroke-linejoin="round" stroke-linecap="round"/><circle cx="15" cy="18" r="8.9" fill="#FFFFFF"/><circle cx="30" cy="13" r="10.9" fill="#FFFFFF"/><circle cx="45" cy="18" r="8.9" fill="#FFFFFF"/><rect x="15" y="17" width="30" height="11" fill="#FFFFFF"/><path d="M15 28h30" stroke="#1A0F45" stroke-width="2"/></g></g><g id="o1"><g transform="translate(198.9 38.5) scale(1.037 1.037) translate(-30 -15)"><circle cx="15" cy="18" r="10" fill="#FFFFFF" stroke="#1A0F45" stroke-width="2" stroke-linejoin="round" stroke-linecap="round"/><circle cx="30" cy="13" r="12" fill="#FFFFFF" stroke="#1A0F45" stroke-width="2" stroke-linejoin="round" stroke-linecap="round"/><circle cx="45" cy="18" r="10" fill="#FFFFFF" stroke="#1A0F45" stroke-width="2" stroke-linejoin="round" stroke-linecap="round"/><circle cx="15" cy="18" r="8.9" fill="#FFFFFF"/><circle cx="30" cy="13" r="10.9" fill="#FFFFFF"/><circle cx="45" cy="18" r="8.9" fill="#FFFFFF"/><rect x="15" y="17" width="30" height="11" fill="#FFFFFF"/><path d="M15 28h30" stroke="#1A0F45" stroke-width="2"/></g></g><g id="o2"><g transform="translate(105.7 55.3) scale(-1.080 1.080) translate(-15 -11)"><path d="M3 13c0-5 5-8 11-7 3-4 9-4 11 1l4 1.5-4 1.8c0 6-6 10.7-13 10.7-6 0-9-3-9-8z" fill="#FF5A5F" stroke="#1A0F45" stroke-width="2" stroke-linejoin="round" stroke-linecap="round"/><path d="M7 12c4-1 8 1 9 5-5 1-8-1-9-5z" fill="#fff" opacity=".7" stroke="#1A0F45" stroke-width="1.2" stroke-linejoin="round" stroke-linecap="round"/><circle cx="21" cy="8" r="1.5" fill="#1A0F45"/><path d="M25.5 7.4l4 1.6-4 1.6z" fill="#FFB020" stroke="#1A0F45" stroke-width="1.2" stroke-linejoin="round" stroke-linecap="round"/></g></g><g id="o3"><g transform="translate(284.1 53.0) scale(1.128 1.128) translate(-20 -20)"><path d="M17.6 1.5h4.8L20 9z" transform="rotate(0 20 20)" fill="#FFE27A" stroke="#1A0F45" stroke-width="1.5" stroke-linejoin="round" stroke-linecap="round"/><path d="M17.6 1.5h4.8L20 9z" transform="rotate(45 20 20)" fill="#FFE27A" stroke="#1A0F45" stroke-width="1.5" stroke-linejoin="round" stroke-linecap="round"/><path d="M17.6 1.5h4.8L20 9z" transform="rotate(90 20 20)" fill="#FFE27A" stroke="#1A0F45" stroke-width="1.5" stroke-linejoin="round" stroke-linecap="round"/><path d="M17.6 1.5h4.8L20 9z" transform="rotate(135 20 20)" fill="#FFE27A" stroke="#1A0F45" stroke-width="1.5" stroke-linejoin="round" stroke-linecap="round"/><path d="M17.6 1.5h4.8L20 9z" transform="rotate(180 20 20)" fill="#FFE27A" stroke="#1A0F45" stroke-width="1.5" stroke-linejoin="round" stroke-linecap="round"/><path d="M17.6 1.5h4.8L20 9z" transform="rotate(225 20 20)" fill="#FFE27A" stroke="#1A0F45" stroke-width="1.5" stroke-linejoin="round" stroke-linecap="round"/><path d="M17.6 1.5h4.8L20 9z" transform="rotate(270 20 20)" fill="#FFE27A" stroke="#1A0F45" stroke-width="1.5" stroke-linejoin="round" stroke-linecap="round"/><path d="M17.6 1.5h4.8L20 9z" transform="rotate(315 20 20)" fill="#FFE27A" stroke="#1A0F45" stroke-width="1.5" stroke-linejoin="round" stroke-linecap="round"/><circle cx="20" cy="20" r="11" fill="#FF6FB5" stroke="#1A0F45" stroke-width="2" stroke-linejoin="round" stroke-linecap="round"/><ellipse cx="16" cy="15" rx="2.6" ry="4" transform="rotate(30 16 15)" fill="#fff" opacity=".6"/></g></g><g id="o4"><g transform="translate(34.3 63.3) scale(0.933 0.933) translate(-30 -15)"><circle cx="15" cy="18" r="10" fill="#FFC2DD" stroke="#1A0F45" stroke-width="2" stroke-linejoin="round" stroke-linecap="round"/><circle cx="30" cy="13" r="12" fill="#FFC2DD" stroke="#1A0F45" stroke-width="2" stroke-linejoin="round" stroke-linecap="round"/><circle cx="45" cy="18" r="10" fill="#FFC2DD" stroke="#1A0F45" stroke-width="2" stroke-linejoin="round" stroke-linecap="round"/><circle cx="15" cy="18" r="8.9" fill="#FFC2DD"/><circle cx="30" cy="13" r="10.9" fill="#FFC2DD"/><circle cx="45" cy="18" r="8.9" fill="#FFC2DD"/><rect x="15" y="17" width="30" height="11" fill="#FFC2DD"/><path d="M15 28h30" stroke="#1A0F45" stroke-width="2"/></g></g><g id="o5"><g transform="translate(145.4 67.6) scale(-1.062 1.062) translate(-15 -11)"><path d="M3 13c0-5 5-8 11-7 3-4 9-4 11 1l4 1.5-4 1.8c0 6-6 10.7-13 10.7-6 0-9-3-9-8z" fill="#FF5A5F" stroke="#1A0F45" stroke-width="2" stroke-linejoin="round" stroke-linecap="round"/><path d="M7 12c4-1 8 1 9 5-5 1-8-1-9-5z" fill="#fff" opacity=".7" stroke="#1A0F45" stroke-width="1.2" stroke-linejoin="round" stroke-linecap="round"/><circle cx="21" cy="8" r="1.5" fill="#1A0F45"/><path d="M25.5 7.4l4 1.6-4 1.6z" fill="#FFB020" stroke="#1A0F45" stroke-width="1.2" stroke-linejoin="round" stroke-linecap="round"/></g></g><g id="o6"><ellipse cx="213.7" cy="123.1" rx="29.6" ry="5.2" fill="#1A0F45" opacity=".16" filter="url(#sm)"/><g transform="translate(213.7 92.9) scale(-1.007 1.007) translate(-32 -31)"><rect x="42" y="6" width="9" height="16" fill="#C46A3A" stroke="#1A0F45" stroke-width="2" stroke-linejoin="round" stroke-linecap="round"/><rect x="8" y="26" width="48" height="34" fill="#FFB3C7" stroke="#1A0F45" stroke-width="2" stroke-linejoin="round" stroke-linecap="round"/><path d="M2 29L32 4 62 29z" fill="#E8503A" stroke="#1A0F45" stroke-width="2" stroke-linejoin="round" stroke-linecap="round"/><rect x="14" y="38" width="13" height="22" rx="3" fill="#9A5B2E" stroke="#1A0F45" stroke-width="2" stroke-linejoin="round" stroke-linecap="round"/><circle cx="24" cy="49" r="1.3" fill="#1A0F45"/><rect x="34" y="35" width="15" height="13" rx="1.5" fill="#BDEBFF" stroke="#1A0F45" stroke-width="2" stroke-linejoin="round" stroke-linecap="round"/><path d="M41.5 35v13M34 41.5h15" stroke="#1A0F45" stroke-width="1.4"/></g></g><g id="o7"><ellipse cx="281.7" cy="127.9" rx="13.3" ry="3.0" fill="#1A0F45" opacity=".16" filter="url(#sm)"/><g transform="translate(281.7 107.7) scale(-0.967 0.967) translate(-15 -22)"><rect x="12.5" y="22" width="5" height="22" fill="#9A5B2E" stroke="#1A0F45" stroke-width="1.5" stroke-linejoin="round" stroke-linecap="round"/><path d="M3 26V13a9 9 0 0 1 9-9h6a9 9 0 0 1 9 9v13z" fill="#FF5A5F" stroke="#1A0F45" stroke-width="2" stroke-linejoin="round" stroke-linecap="round"/><path d="M8 13h14" stroke="#1A0F45" stroke-width="2" stroke-linecap="round"/></g></g><g id="o8"><ellipse cx="113.0" cy="153.0" rx="23.4" ry="4.1" fill="#1A0F45" opacity=".16" filter="url(#sm)"/><g transform="translate(113.0 119.8) scale(0.979 0.979) translate(-26 -35)"><path d="M22 70V42h8v28z" fill="#9A5B2E" stroke="#1A0F45" stroke-width="2" stroke-linejoin="round" stroke-linecap="round"/><circle cx="15" cy="33" r="13" fill="#3DBE5A" stroke="#1A0F45" stroke-width="2" stroke-linejoin="round" stroke-linecap="round"/><circle cx="37" cy="33" r="13" fill="#3DBE5A" stroke="#1A0F45" stroke-width="2" stroke-linejoin="round" stroke-linecap="round"/><circle cx="26" cy="19" r="16" fill="#3DBE5A" stroke="#1A0F45" stroke-width="2" stroke-linejoin="round" stroke-linecap="round"/><circle cx="26" cy="37" r="12" fill="#3DBE5A" stroke="#1A0F45" stroke-width="2" stroke-linejoin="round" stroke-linecap="round"/><circle cx="15" cy="33" r="11.9" fill="#3DBE5A"/><circle cx="37" cy="33" r="11.9" fill="#3DBE5A"/><circle cx="26" cy="19" r="14.9" fill="#3DBE5A"/><circle cx="26" cy="37" r="10.9" fill="#3DBE5A"/><ellipse cx="19" cy="14" rx="4" ry="6" transform="rotate(30 19 14)" fill="#fff" opacity=".6"/></g></g><g id="o9"><ellipse cx="42.1" cy="183.6" rx="33.5" ry="5.8" fill="#1A0F45" opacity=".16" filter="url(#sm)"/><g transform="translate(42.1 149.3) scale(1.138 1.138) translate(-32 -31)"><rect x="42" y="6" width="9" height="16" fill="#C46A3A" stroke="#1A0F45" stroke-width="2" stroke-linejoin="round" stroke-linecap="round"/><rect x="8" y="26" width="48" height="34" fill="#C9F2C2" stroke="#1A0F45" stroke-width="2" stroke-linejoin="round" stroke-linecap="round"/><path d="M2 29L32 4 62 29z" fill="#2EAA6A" stroke="#1A0F45" stroke-width="2" stroke-linejoin="round" stroke-linecap="round"/><circle cx="32" cy="19" r="5.2" fill="#FFF3B0" stroke="#1A0F45" stroke-width="1.5" stroke-linejoin="round" stroke-linecap="round"/><rect x="14" y="38" width="13" height="22" rx="3" fill="#9A5B2E" stroke="#1A0F45" stroke-width="2" stroke-linejoin="round" stroke-linecap="round"/><circle cx="24" cy="49" r="1.3" fill="#1A0F45"/><rect x="34" y="35" width="15" height="13" rx="1.5" fill="#BDEBFF" stroke="#1A0F45" stroke-width="2" stroke-linejoin="round" stroke-linecap="round"/><path d="M41.5 35v13M34 41.5h15" stroke="#1A0F45" stroke-width="1.4"/></g></g><g id="o10"><ellipse cx="195.2" cy="206.6" rx="31.2" ry="5.4" fill="#1A0F45" opacity=".16" filter="url(#sm)"/><g transform="translate(195.2 174.8) scale(1.058 1.058) translate(-32 -31)"><rect x="8" y="26" width="48" height="34" fill="#FFB3C7" stroke="#1A0F45" stroke-width="2" stroke-linejoin="round" stroke-linecap="round"/><path d="M2 29L32 4 62 29z" fill="#4B6CD9" stroke="#1A0F45" stroke-width="2" stroke-linejoin="round" stroke-linecap="round"/><rect x="14" y="38" width="13" height="22" rx="3" fill="#9A5B2E" stroke="#1A0F45" stroke-width="2" stroke-linejoin="round" stroke-linecap="round"/><circle cx="24" cy="49" r="1.3" fill="#1A0F45"/><rect x="34" y="35" width="15" height="13" rx="1.5" fill="#BDEBFF" stroke="#1A0F45" stroke-width="2" stroke-linejoin="round" stroke-linecap="round"/><path d="M41.5 35v13M34 41.5h15" stroke="#1A0F45" stroke-width="1.4"/></g></g><g id="o11"><ellipse cx="284.1" cy="224.2" rx="27.2" ry="4.7" fill="#1A0F45" opacity=".16" filter="url(#sm)"/><g transform="translate(284.1 185.3) scale(1.139 1.139) translate(-26 -35)"><path d="M22 70V42h8v28z" fill="#9A5B2E" stroke="#1A0F45" stroke-width="2" stroke-linejoin="round" stroke-linecap="round"/><circle cx="15" cy="33" r="13" fill="#FF9A3D" stroke="#1A0F45" stroke-width="2" stroke-linejoin="round" stroke-linecap="round"/><circle cx="37" cy="33" r="13" fill="#FF9A3D" stroke="#1A0F45" stroke-width="2" stroke-linejoin="round" stroke-linecap="round"/><circle cx="26" cy="19" r="16" fill="#FF9A3D" stroke="#1A0F45" stroke-width="2" stroke-linejoin="round" stroke-linecap="round"/><circle cx="26" cy="37" r="12" fill="#FF9A3D" stroke="#1A0F45" stroke-width="2" stroke-linejoin="round" stroke-linecap="round"/><circle cx="15" cy="33" r="11.9" fill="#FF9A3D"/><circle cx="37" cy="33" r="11.9" fill="#FF9A3D"/><circle cx="26" cy="19" r="14.9" fill="#FF9A3D"/><circle cx="26" cy="37" r="10.9" fill="#FF9A3D"/><ellipse cx="19" cy="14" rx="4" ry="6" transform="rotate(30 19 14)" fill="#fff" opacity=".6"/><circle cx="14" cy="32" r="4.4" fill="#E8203F" stroke="#1A0F45" stroke-width="1.4" stroke-linejoin="round" stroke-linecap="round"/><circle cx="35" cy="25" r="4.4" fill="#E8203F" stroke="#1A0F45" stroke-width="1.4" stroke-linejoin="round" stroke-linecap="round"/><circle cx="29" cy="41" r="4.4" fill="#E8203F" stroke="#1A0F45" stroke-width="1.4" stroke-linejoin="round" stroke-linecap="round"/></g></g><g id="o12"><ellipse cx="57.1" cy="230.0" rx="10.4" ry="3.0" fill="#1A0F45" opacity=".16" filter="url(#sm)"/><g transform="translate(57.1 213.2) scale(0.940 0.940) translate(-12 -19)"><path d="M12 18V38" stroke="#2EAA4A" stroke-width="3" stroke-linecap="round"/><path d="M12 31c-6 0-9-4-9-7 5 0 9 3 9 7z" fill="#3DBE5A" stroke="#1A0F45" stroke-width="1.3" stroke-linejoin="round" stroke-linecap="round"/><ellipse cx="12" cy="6.2" rx="4.6" ry="6" transform="rotate(0 12 12)" fill="#B266FF" stroke="#1A0F45" stroke-width="1.4" stroke-linejoin="round" stroke-linecap="round"/><ellipse cx="12" cy="6.2" rx="4.6" ry="6" transform="rotate(72 12 12)" fill="#B266FF" stroke="#1A0F45" stroke-width="1.4" stroke-linejoin="round" stroke-linecap="round"/><ellipse cx="12" cy="6.2" rx="4.6" ry="6" transform="rotate(144 12 12)" fill="#B266FF" stroke="#1A0F45" stroke-width="1.4" stroke-linejoin="round" stroke-linecap="round"/><ellipse cx="12" cy="6.2" rx="4.6" ry="6" transform="rotate(216 12 12)" fill="#B266FF" stroke="#1A0F45" stroke-width="1.4" stroke-linejoin="round" stroke-linecap="round"/><ellipse cx="12" cy="6.2" rx="4.6" ry="6" transform="rotate(288 12 12)" fill="#B266FF" stroke="#1A0F45" stroke-width="1.4" stroke-linejoin="round" stroke-linecap="round"/><circle cx="12" cy="12" r="3.6" fill="#FFE27A" stroke="#1A0F45" stroke-width="1.3" stroke-linejoin="round" stroke-linecap="round"/></g></g><g id="o13"><ellipse cx="105.8" cy="230.2" rx="27.5" ry="4.8" fill="#1A0F45" opacity=".16" filter="url(#sm)"/><g transform="translate(105.8 214.8) scale(-0.963 0.963) translate(-31 -17)"><rect x="22" y="1" width="20" height="5" rx="1.5" fill="#FFC93C" stroke="#1A0F45" stroke-width="1.5" stroke-linejoin="round" stroke-linecap="round"/><path d="M3 26v-8c0-3 2-5 5-5h8l7-8h18l9 8h6c3 0 4 2 4 5v8z" fill="#FF6FB5" stroke="#1A0F45" stroke-width="2" stroke-linejoin="round" stroke-linecap="round"/><path d="M19 13l5.4-5.6H31V13zM34 13V7.4h6l6 5.6z" fill="#BDEBFF" stroke="#1A0F45" stroke-width="1.5" stroke-linejoin="round" stroke-linecap="round"/><circle cx="15" cy="27" r="5.6" fill="#1A0F45"/><circle cx="15" cy="27" r="2.4" fill="#C9C4DA"/><circle cx="47" cy="27" r="5.6" fill="#1A0F45"/><circle cx="47" cy="27" r="2.4" fill="#C9C4DA"/><circle cx="57" cy="18" r="2" fill="#FFE27A" stroke="#1A0F45" stroke-width="1.2" stroke-linejoin="round" stroke-linecap="round"/></g></g><rect width="320" height="240" fill="url(#lt)"/><rect width="320" height="240" fill="url(#vg)"/><rect x=".75" y=".75" width="318.5" height="238.5" rx="6" fill="none" stroke="#1A0F45" stroke-width="1.5" opacity=".35"/></g></svg>