<svg xmlns="http://www.w3.org/2000/svg" viewBox="0 0 320 240" width="1600" height="1200"><defs><clipPath id="c"><rect width="320" height="240"/></clipPath></defs><g clip-path="url(#c)"><defs>
    <radialGradient id="lt" cx=".25" cy=".12" r=".9"><stop offset="0" stop-color="#fff" stop-opacity="0.38"/><stop offset=".55" stop-color="#fff" stop-opacity="0"/></radialGradient>
    <linearGradient id="vg" x1="0" y1="0" x2="0" y2="1"><stop offset=".62" stop-color="#1A0F45" stop-opacity="0"/><stop offset="1" stop-color="#1A0F45" stop-opacity="0.16"/></linearGradient>
    <filter id="sm" x="-30%" y="-30%" width="160%" height="160%"><feGaussianBlur stdDeviation="1.6"/></filter></defs><rect width="320" height="240" fill="#FFF1D6"/><path d="M20 0V116M60 0V116M100 0V116M140 0V116M180 0V116M220 0V116M260 0V116M300 0V116M0 20H320M0 60H320M0 100H320" stroke="#F1D9AE" stroke-width="1.4"/><rect x="144" y="14" width="72" height="58" rx="4" fill="#BDEBFF" stroke="#fff" stroke-width="5"/><rect x="144" y="14" width="72" height="58" rx="4" fill="none" stroke="#1A0F45" stroke-width="1.6"/><path d="M180 14v58M144 43h72" stroke="#fff" stroke-width="4"/><circle cx="198" cy="28" r="6" fill="#FFF3B0"/><rect y="116" width="320" height="124" fill="#FFE0E8"/><path d="M20 118h20v20h-20zM60 118h20v20h-20zM100 118h20v20h-20zM140 118h20v20h-20zM180 118h20v20h-20zM220 118h20v20h-20zM260 118h20v20h-20zM300 118h20v20h-20zM0 138h20v20h-20zM40 138h20v20h-20zM80 138h20v20h-20zM120 138h20v20h-20zM160 138h20v20h-20zM200 138h20v20h-20zM240 138h20v20h-20zM280 138h20v20h-20zM20 158h20v20h-20zM60 158h20v20h-20zM100 158h20v20h-20zM140 158h20v20h-20zM180 158h20v20h-20zM220 158h20v20h-20zM260 158h20v20h-20zM300 158h20v20h-20zM0 178h20v20h-20zM40 178h20v20h-20zM80 178h20v20h-20zM120 178h20v20h-20zM160 178h20v20h-20zM200 178h20v20h-20zM240 178h20v20h-20zM280 178h20v20h-20zM20 198h20v20h-20zM60 198h20v20h-20zM100 198h20v20h-20zM140 198h20v20h-20zM180 198h20v20h-20zM220 198h20v20h-20zM260 198h20v20h-20zM300 198h20v20h-20zM0 218h20v20h-20zM40 218h20v20h-20zM80 218h20v20h-20zM120 218h20v20h-20zM160 218h20v20h-20zM200 218h20v20h-20zM240 218h20v20h-20zM280 218h20v20h-20z" fill="#FFC7D6" opacity=".7"/><path d="M0 116h320" stroke="#1A0F45" stroke-width="2"/><path d="M285.0 193.7l-1.6-4.2M285.0 193.7l.2-5M285.0 193.7l1.8-4" stroke="#B07A3C" stroke-width="1" stroke-linecap="round" opacity=".28"/><path d="M164.0 177.3l-1.6-4.2M164.0 177.3l.2-5M164.0 177.3l1.8-4" stroke="#B07A3C" stroke-width="1" stroke-linecap="round" opacity=".28"/><path d="M47.9 221.3l-1.6-4.2M47.9 221.3l.2-5M47.9 221.3l1.8-4" stroke="#B07A3C" stroke-width="1" stroke-linecap="round" opacity=".28"/><path d="M277.1 177.2l-1.6-4.2M277.1 177.2l.2-5M277.1 177.2l1.8-4" stroke="#B07A3C" stroke-width="1" stroke-linecap="round" opacity=".28"/><path d="M191.1 201.9l-1.6-4.2M191.1 201.9l.2-5M191.1 201.9l1.8-4" stroke="#B07A3C" stroke-width="1" stroke-linecap="round" opacity=".28"/><path d="M256.3 149.2l-1.6-4.2M256.3 149.2l.2-5M256.3 149.2l1.8-4" stroke="#B07A3C" stroke-width="1" stroke-linecap="round" opacity=".28"/><path d="M171.2 167.6l-1.6-4.2M171.2 167.6l.2-5M171.2 167.6l1.8-4" stroke="#B07A3C" stroke-width="1" stroke-linecap="round" opacity=".28"/><path d="M311.7 228.5l-1.6-4.2M311.7 228.5l.2-5M311.7 228.5l1.8-4" stroke="#B07A3C" stroke-width="1" stroke-linecap="round" opacity=".28"/><path d="M4.4 194.0l-1.6-4.2M4.4 194.0l.2-5M4.4 194.0l1.8-4" stroke="#B07A3C" stroke-width="1" stroke-linecap="round" opacity=".28"/><path d="M187.7 235.1l-1.6-4.2M187.7 235.1l.2-5M187.7 235.1l1.8-4" stroke="#B07A3C" stroke-width="1" stroke-linecap="round" opacity=".28"/><path d="M314.7 186.2l-1.6-4.2M314.7 186.2l.2-5M314.7 186.2l1.8-4" stroke="#B07A3C" stroke-width="1" stroke-linecap="round" opacity=".28"/><path d="M216.7 190.3l-1.6-4.2M216.7 190.3l.2-5M216.7 190.3l1.8-4" stroke="#B07A3C" stroke-width="1" stroke-linecap="round" opacity=".28"/><path d="M40.4 229.8l-1.6-4.2M40.4 229.8l.2-5M40.4 229.8l1.8-4" stroke="#B07A3C" stroke-width="1" stroke-linecap="round" opacity=".28"/><path d="M310.7 202.2l-1.6-4.2M310.7 202.2l.2-5M310.7 202.2l1.8-4" stroke="#B07A3C" stroke-width="1" stroke-linecap="round" opacity=".28"/><path d="M242.0 169.8l-1.6-4.2M242.0 169.8l.2-5M242.0 169.8l1.8-4" stroke="#B07A3C" stroke-width="1" stroke-linecap="round" opacity=".28"/><path d="M34.5 232.8l-1.6-4.2M34.5 232.8l.2-5M34.5 232.8l1.8-4" stroke="#B07A3C" stroke-width="1" stroke-linecap="round" opacity=".28"/><path d="M151.9 157.5l-1.6-4.2M151.9 157.5l.2-5M151.9 157.5l1.8-4" stroke="#B07A3C" stroke-width="1" stroke-linecap="round" opacity=".28"/><path d="M117.3 213.1l-1.6-4.2M117.3 213.1l.2-5M117.3 213.1l1.8-4" stroke="#B07A3C" stroke-width="1" stroke-linecap="round" opacity=".28"/><path d="M304.5 218.0l-1.6-4.2M304.5 218.0l.2-5M304.5 218.0l1.8-4" stroke="#B07A3C" stroke-width="1" stroke-linecap="round" opacity=".28"/><path d="M250.7 194.7l-1.6-4.2M250.7 194.7l.2-5M250.7 194.7l1.8-4" stroke="#B07A3C" stroke-width="1" stroke-linecap="round" opacity=".28"/><path d="M34.5 229.5l-1.6-4.2M34.5 229.5l.2-5M34.5 229.5l1.8-4" stroke="#B07A3C" stroke-width="1" stroke-linecap="round" opacity=".28"/><path d="M24.9 229.5l-1.6-4.2M24.9 229.5l.2-5M24.9 229.5l1.8-4" stroke="#B07A3C" stroke-width="1" stroke-linecap="round" opacity=".28"/><path d="M116.2 220.1l-1.6-4.2M116.2 220.1l.2-5M116.2 220.1l1.8-4" stroke="#B07A3C" stroke-width="1" stroke-linecap="round" opacity=".28"/><path d="M159.5 151.0l-1.6-4.2M159.5 151.0l.2-5M159.5 151.0l1.8-4" stroke="#B07A3C" stroke-width="1" stroke-linecap="round" opacity=".28"/><path d="M99.4 222.1l-1.6-4.2M99.4 222.1l.2-5M99.4 222.1l1.8-4" stroke="#B07A3C" stroke-width="1" stroke-linecap="round" opacity=".28"/><path d="M62.4 211.1l-1.6-4.2M62.4 211.1l.2-5M62.4 211.1l1.8-4" stroke="#B07A3C" stroke-width="1" stroke-linecap="round" opacity=".28"/><path d="M193.3 192.0l-1.6-4.2M193.3 192.0l.2-5M193.3 192.0l1.8-4" stroke="#B07A3C" stroke-width="1" stroke-linecap="round" opacity=".28"/><path d="M65.4 174.0l-1.6-4.2M65.4 174.0l.2-5M65.4 174.0l1.8-4" stroke="#B07A3C" stroke-width="1" stroke-linecap="round" opacity=".28"/><path d="M175.5 226.1l-1.6-4.2M175.5 226.1l.2-5M175.5 226.1l1.8-4" stroke="#B07A3C" stroke-width="1" stroke-linecap="round" opacity=".28"/><path d="M284.6 203.1l-1.6-4.2M284.6 203.1l.2-5M284.6 203.1l1.8-4" stroke="#B07A3C" stroke-width="1" stroke-linecap="round" opacity=".28"/><path d="M236.3 156.2l-1.6-4.2M236.3 156.2l.2-5M236.3 156.2l1.8-4" stroke="#B07A3C" stroke-width="1" stroke-linecap="round" opacity=".28"/><path d="M189.6 205.6l-1.6-4.2M189.6 205.6l.2-5M189.6 205.6l1.8-4" stroke="#B07A3C" stroke-width="1" stroke-linecap="round" opacity=".28"/><path d="M284.1 176.3l-1.6-4.2M284.1 176.3l.2-5M284.1 176.3l1.8-4" stroke="#B07A3C" stroke-width="1" stroke-linecap="round" opacity=".28"/><path d="M251.6 159.7l-1.6-4.2M251.6 159.7l.2-5M251.6 159.7l1.8-4" stroke="#B07A3C" stroke-width="1" stroke-linecap="round" opacity=".28"/><path d="M4.5 213.6l-1.6-4.2M4.5 213.6l.2-5M4.5 213.6l1.8-4" stroke="#B07A3C" stroke-width="1" stroke-linecap="round" opacity=".28"/><path d="M292.0 184.9l-1.6-4.2M292.0 184.9l.2-5M292.0 184.9l1.8-4" stroke="#B07A3C" stroke-width="1" stroke-linecap="round" opacity=".28"/><path d="M140.2 161.8l-1.6-4.2M140.2 161.8l.2-5M140.2 161.8l1.8-4" stroke="#B07A3C" stroke-width="1" stroke-linecap="round" opacity=".28"/><path d="M6.2 189.0l-1.6-4.2M6.2 189.0l.2-5M6.2 189.0l1.8-4" stroke="#B07A3C" stroke-width="1" stroke-linecap="round" opacity=".28"/><path d="M238.7 151.9l-1.6-4.2M238.7 151.9l.2-5M238.7 151.9l1.8-4" stroke="#B07A3C" stroke-width="1" stroke-linecap="round" opacity=".28"/><path d="M314.1 163.7l-1.6-4.2M314.1 163.7l.2-5M314.1 163.7l1.8-4" stroke="#B07A3C" stroke-width="1" stroke-linecap="round" opacity=".28"/><path d="M274.1 158.3l-1.6-4.2M274.1 158.3l.2-5M274.1 158.3l1.8-4" stroke="#B07A3C" stroke-width="1" stroke-linecap="round" opacity=".28"/><path d="M257.6 148.6l-1.6-4.2M257.6 148.6l.2-5M257.6 148.6l1.8-4" stroke="#B07A3C" stroke-width="1" stroke-linecap="round" opacity=".28"/><path d="M50.0 234.6l-1.6-4.2M50.0 234.6l.2-5M50.0 234.6l1.8-4" stroke="#B07A3C" stroke-width="1" stroke-linecap="round" opacity=".28"/><path d="M293.1 177.5l-1.6-4.2M293.1 177.5l.2-5M293.1 177.5l1.8-4" stroke="#B07A3C" stroke-width="1" stroke-linecap="round" opacity=".28"/><path d="M72.1 197.9l-1.6-4.2M72.1 197.9l.2-5M72.1 197.9l1.8-4" stroke="#B07A3C" stroke-width="1" stroke-linecap="round" opacity=".28"/><path d="M131.2 179.1l-1.6-4.2M131.2 179.1l.2-5M131.2 179.1l1.8-4" stroke="#B07A3C" stroke-width="1" stroke-linecap="round" opacity=".28"/><g id="o0"><g transform="translate(59.0 33.5) scale(1.104 1.104) translate(-25 -20)"><rect x="2" y="2" width="46" height="36" rx="3" fill="#FFC93C" stroke="#1A0F45" stroke-width="2" stroke-linejoin="round" stroke-linecap="round"/><rect x="8" y="8" width="34" height="24" fill="#BDEBFF" stroke="#1A0F45" stroke-width="1.5" stroke-linejoin="round" stroke-linecap="round"/><path d="M8.8 31.2l9.6-13.6 7 8 5-5 11 10.6z" fill="#3DBE5A" stroke="#1A0F45" stroke-width="1.3" stroke-linejoin="round" stroke-linecap="round"/><circle cx="35" cy="14" r="3.4" fill="#FFC93C" stroke="#1A0F45" stroke-width="1.2" stroke-linejoin="round" stroke-linecap="round"/></g></g><g id="o1"><g transform="translate(264.4 59.7) scale(1.060 1.060) translate(-25 -20)"><rect x="2" y="2" width="46" height="36" rx="3" fill="#4B8BFF" stroke="#1A0F45" stroke-width="2" stroke-linejoin="round" stroke-linecap="round"/><rect x="8" y="8" width="34" height="24" fill="#BDEBFF" stroke="#1A0F45" stroke-width="1.5" stroke-linejoin="round" stroke-linecap="round"/><path d="M8.8 31.2l9.6-13.6 7 8 5-5 11 10.6z" fill="#3DBE5A" stroke="#1A0F45" stroke-width="1.3" stroke-linejoin="round" stroke-linecap="round"/><circle cx="35" cy="14" r="3.4" fill="#FFC93C" stroke="#1A0F45" stroke-width="1.2" stroke-linejoin="round" stroke-linecap="round"/></g></g><g id="o2"><ellipse cx="147.9" cy="140.1" rx="18.9" ry="3.3" fill="#1A0F45" opacity=".16" filter="url(#sm)"/><g transform="translate(147.9 121.6) scale(1.142 1.142) translate(-18 -17)"><ellipse cx="16" cy="31.5" rx="14" ry="2.5" fill="#fff" stroke="#1A0F45" stroke-width="1.5" stroke-linejoin="round" stroke-linecap="round"/><path d="M25 15h3a5.4 5.4 0 0 1 0 10.8h-3" fill="none" stroke="#1A0F45" stroke-width="5.6"/><path d="M25 15h3a5.4 5.4 0 0 1 0 10.8h-3" fill="none" stroke="#4B8BFF" stroke-width="2.4"/><path d="M5 12h22l-2 16c-.4 2.6-2.6 4.4-5.4 4.4h-7.2C9.6 32.4 7.4 30.6 7 28z" fill="#4B8BFF" stroke="#1A0F45" stroke-width="2" stroke-linejoin="round" stroke-linecap="round"/></g></g><g id="o3"><ellipse cx="300.6" cy="145.8" rx="13.3" ry="3.0" fill="#1A0F45" opacity=".16" filter="url(#sm)"/><g transform="translate(300.6 131.2) scale(1.114 1.114) translate(-13 -14)"><path d="M13 9c0-3 1-5 2.4-7" fill="none" stroke="#1A0F45" stroke-width="2" stroke-linejoin="round" stroke-linecap="round"/><path d="M15 5.4c3-4 8-4 10-2-2 3-7 4-10 2z" fill="#3DBE5A" stroke="#1A0F45" stroke-width="1.3" stroke-linejoin="round" stroke-linecap="round"/><path d="M13 9.4c-3-2-8-3-11 1-4 4-2 12 1 15 3 3.6 6 3.6 8 2.6 1-.5 3-.5 4 0 2 1 5 1 8-2.6 3-3 5-11 1-15-3-4-8-3-11-1z" fill="#E8203F" stroke="#1A0F45" stroke-width="2" stroke-linejoin="round" stroke-linecap="round"/><ellipse cx="7" cy="15" rx="2" ry="4" transform="rotate(20 7 15)" fill="#fff" opacity=".6"/></g></g><g id="o4"><ellipse cx="215.9" cy="147.4" rx="22.0" ry="3.8" fill="#1A0F45" opacity=".16" filter="url(#sm)"/><g transform="translate(215.9 128.8) scale(1.089 1.089) translate(-22 -18)"><path d="M9 30c-7-2-8-12-2-15" fill="none" stroke="#1A0F45" stroke-width="6.4" stroke-linecap="round"/><path d="M9 30c-7-2-8-12-2-15" fill="none" stroke="#7E7896" stroke-width="3.2" stroke-linecap="round"/><ellipse cx="18" cy="26" rx="13" ry="8.6" fill="#7E7896" stroke="#1A0F45" stroke-width="2" stroke-linejoin="round" stroke-linecap="round"/><ellipse cx="12" cy="34" rx="3.6" ry="2" fill="#7E7896" stroke="#1A0F45" stroke-width="1.4" stroke-linejoin="round" stroke-linecap="round"/><ellipse cx="23" cy="34" rx="3.6" ry="2" fill="#7E7896" stroke="#1A0F45" stroke-width="1.4" stroke-linejoin="round" stroke-linecap="round"/><path d="M24 9l1-8 7 5zM34 6l6-5 1 9z" fill="#7E7896" stroke="#1A0F45" stroke-width="2" stroke-linejoin="round" stroke-linecap="round"/><circle cx="32" cy="15" r="10" fill="#7E7896" stroke="#1A0F45" stroke-width="2" stroke-linejoin="round" stroke-linecap="round"/><circle cx="28.6" cy="14" r="1.5" fill="#1A0F45"/><circle cx="36" cy="14" r="1.5" fill="#1A0F45"/><path d="M31.4 18l1 1 1-1" fill="none" stroke="#1A0F45" stroke-width="1.2" stroke-linejoin="round" stroke-linecap="round"/><circle cx="27" cy="18" r="1.8" fill="#FF8FB0" opacity=".7"/><path d="M26.5 24.5l-5-3.2v6.4zM26.5 24.5l5-3.2v6.4z" fill="#FF3D7F" stroke="#1A0F45" stroke-width="1.3" stroke-linejoin="round" stroke-linecap="round"/></g></g><g id="o5"><ellipse cx="68.0" cy="151.6" rx="24.0" ry="4.2" fill="#1A0F45" opacity=".16" filter="url(#sm)"/><g transform="translate(68.0 132.2) scale(0.968 0.968) translate(-27 -21)"><path d="M14 26L2 14l3.4-2.6L17 20z" fill="#3DBE5A" stroke="#1A0F45" stroke-width="2" stroke-linejoin="round" stroke-linecap="round"/><path d="M41 17c10 0 11 15 0 15" fill="none" stroke="#1A0F45" stroke-width="6"/><path d="M41 17c10 0 11 15 0 15" fill="none" stroke="#3DBE5A" stroke-width="2.6"/><ellipse cx="26" cy="27" rx="17" ry="14" fill="#3DBE5A" stroke="#1A0F45" stroke-width="2" stroke-linejoin="round" stroke-linecap="round"/><path d="M14.5 15c3-6.4 20-6.4 23 0z" fill="#3DBE5A" stroke="#1A0F45" stroke-width="2" stroke-linejoin="round" stroke-linecap="round"/><circle cx="26" cy="6.4" r="3" fill="#3DBE5A" stroke="#1A0F45" stroke-width="2" stroke-linejoin="round" stroke-linecap="round"/><circle cx="19" cy="26" r="2.8" fill="#fff"/><circle cx="30" cy="22.5" r="2.8" fill="#fff"/><circle cx="29" cy="33" r="2.8" fill="#fff"/></g></g><g id="o6"><ellipse cx="259.5" cy="156.5" rx="13.3" ry="3.0" fill="#1A0F45" opacity=".16" filter="url(#sm)"/><g transform="translate(259.5 138.5) scale(0.904 0.904) translate(-16 -21)"><rect x="3" y="7" width="26" height="33.5" rx="7" fill="#E6F6FF" stroke="#1A0F45" stroke-width="2" stroke-linejoin="round" stroke-linecap="round"/><path d="M4.4 19h23.2v14.4c0 3-2.4 5.6-5.6 5.6H10c-3.2 0-5.6-2.6-5.6-5.6z" fill="#FF6FB5"/><rect x="3" y="7" width="26" height="33.5" rx="7" fill="none" stroke="#1A0F45" stroke-width="2" stroke-linejoin="round" stroke-linecap="round"/><rect x="6" y="1" width="20" height="7" rx="2" fill="#E8503A" stroke="#1A0F45" stroke-width="2" stroke-linejoin="round" stroke-linecap="round"/><path d="M7 12v8" stroke="#fff" stroke-width="2.6" stroke-linecap="round" opacity=".8"/></g></g><g id="o7"><ellipse cx="22.9" cy="174.4" rx="12.5" ry="3.0" fill="#1A0F45" opacity=".16" filter="url(#sm)"/><g transform="translate(22.9 160.8) scale(1.042 1.042) translate(-13 -14)"><path d="M13 9c0-3 1-5 2.4-7" fill="none" stroke="#1A0F45" stroke-width="2" stroke-linejoin="round" stroke-linecap="round"/><path d="M13 9.4c-3-2-8-3-11 1-4 4-2 12 1 15 3 3.6 6 3.6 8 2.6 1-.5 3-.5 4 0 2 1 5 1 8-2.6 3-3 5-11 1-15-3-4-8-3-11-1z" fill="#7BC74D" stroke="#1A0F45" stroke-width="2" stroke-linejoin="round" stroke-linecap="round"/><ellipse cx="7" cy="15" rx="2" ry="4" transform="rotate(20 7 15)" fill="#fff" opacity=".6"/></g></g><g id="o8"><ellipse cx="72.2" cy="188.5" rx="27.5" ry="4.8" fill="#1A0F45" opacity=".16" filter="url(#sm)"/><g transform="translate(72.2 174.0) scale(1.197 1.197) translate(-25 -13)"><path d="M2 12h46c0 8.4-9 13-23 13S2 20.4 2 12z" fill="#3DBE5A" stroke="#1A0F45" stroke-width="2" stroke-linejoin="round" stroke-linecap="round"/></g></g><g id="o9"><ellipse cx="210.3" cy="202.4" rx="25.4" ry="4.4" fill="#1A0F45" opacity=".16" filter="url(#sm)"/><g transform="translate(210.3 183.0) scale(1.021 1.021) translate(-27 -20)"><rect x="1" y="16" width="9" height="5" rx="2.5" fill="#5A5470" stroke="#1A0F45" stroke-width="1.5" stroke-linejoin="round" stroke-linecap="round"/><rect x="44" y="16" width="9" height="5" rx="2.5" fill="#5A5470" stroke="#1A0F45" stroke-width="1.5" stroke-linejoin="round" stroke-linecap="round"/><rect x="7" y="12" width="40" height="27" rx="6" fill="#4B8BFF" stroke="#1A0F45" stroke-width="2" stroke-linejoin="round" stroke-linecap="round"/><path d="M11 18v14" stroke="#fff" stroke-width="3" stroke-linecap="round" opacity=".6"/><path d="M5 13.5c2-8 42-8 44 0z" fill="#4B8BFF" stroke="#1A0F45" stroke-width="2" stroke-linejoin="round" stroke-linecap="round"/><rect x="23" y="1.5" width="8" height="5" rx="2" fill="#1A0F45"/></g></g><g id="o10"><ellipse cx="129.7" cy="209.1" rx="17.9" ry="3.1" fill="#1A0F45" opacity=".16" filter="url(#sm)"/><g transform="translate(129.7 184.1) scale(1.083 1.083) translate(-18 -24)"><path d="M18 30C10 26 5 18 7 10c7 3 11 10 11 20z" fill="#3DBE5A" stroke="#1A0F45" stroke-width="1.5" stroke-linejoin="round" stroke-linecap="round"/><path d="M18 30c8-4 13-12 11-20-7 3-11 10-11 20z" fill="#2EAA4A" stroke="#1A0F45" stroke-width="1.5" stroke-linejoin="round" stroke-linecap="round"/><path d="M18 30c-3-7-2-14 0-20 2 6 3 13 0 20z" fill="#5BD06A" stroke="#1A0F45" stroke-width="1.5" stroke-linejoin="round" stroke-linecap="round"/><path d="M7 31h22l-3 16H10z" fill="#4B8BFF" stroke="#1A0F45" stroke-width="2" stroke-linejoin="round" stroke-linecap="round"/><rect x="5" y="28" width="26" height="5.4" rx="2" fill="#4B8BFF" stroke="#1A0F45" stroke-width="2" stroke-linejoin="round" stroke-linecap="round"/></g></g><g id="o11"><ellipse cx="270.6" cy="220.1" rx="16.1" ry="3.0" fill="#1A0F45" opacity=".16" filter="url(#sm)"/><g transform="translate(270.6 198.1) scale(1.095 1.095) translate(-16 -21)"><rect x="3" y="7" width="26" height="33.5" rx="7" fill="#E6F6FF" stroke="#1A0F45" stroke-width="2" stroke-linejoin="round" stroke-linecap="round"/><path d="M4.4 19h23.2v14.4c0 3-2.4 5.6-5.6 5.6H10c-3.2 0-5.6-2.6-5.6-5.6z" fill="#3DBE5A"/><rect x="3" y="7" width="26" height="33.5" rx="7" fill="none" stroke="#1A0F45" stroke-width="2" stroke-linejoin="round" stroke-linecap="round"/><rect x="6" y="1" width="20" height="7" rx="2" fill="#E8503A" stroke="#1A0F45" stroke-width="2" stroke-linejoin="round" stroke-linecap="round"/><path d="M7 12v8" stroke="#fff" stroke-width="2.6" stroke-linecap="round" opacity=".8"/></g></g><g id="o12"><ellipse cx="46.2" cy="223.0" rx="36.2" ry="6.3" fill="#1A0F45" opacity=".16" filter="url(#sm)"/><g transform="translate(46.2 209.7) scale(1.191 1.191) translate(-33 -12)"><path d="M37 12h27" stroke="#1A0F45" stroke-width="7.4" stroke-linecap="round"/><path d="M37 12h27" stroke="#8A5A2B" stroke-width="4" stroke-linecap="round"/><ellipse cx="20" cy="12" rx="18.6" ry="10.6" fill="#5A5470" stroke="#1A0F45" stroke-width="2" stroke-linejoin="round" stroke-linecap="round"/><ellipse cx="20" cy="11.4" rx="13.6" ry="7" fill="#2A2440" opacity=".35"/></g></g><rect width="320" height="240" fill="url(#lt)"/><rect width="320" height="240" fill="url(#vg)"/><rect x=".75" y=".75" width="318.5" height="238.5" rx="6" fill="none" stroke="#1A0F45" stroke-width="1.5" opacity=".35"/></g></svg>