<svg xmlns="http://www.w3.org/2000/svg" viewBox="0 0 320 240" width="1600" height="1200"><defs><clipPath id="c"><rect width="320" height="240"/></clipPath></defs><g clip-path="url(#c)"><defs>
    <radialGradient id="lt" cx=".25" cy=".12" r=".9"><stop offset="0" stop-color="#fff" stop-opacity="0.38"/><stop offset=".55" stop-color="#fff" stop-opacity="0"/></radialGradient>
    <linearGradient id="vg" x1="0" y1="0" x2="0" y2="1"><stop offset=".62" stop-color="#1A0F45" stop-opacity="0"/><stop offset="1" stop-color="#1A0F45" stop-opacity="0.16"/></linearGradient>
    <filter id="sm" x="-30%" y="-30%" width="160%" height="160%"><feGaussianBlur stdDeviation="1.6"/></filter></defs><rect width="320" height="240" fill="#BFE8FF"/><rect y="90" width="320" height="54" fill="#4FC3F7"/><rect y="90" width="320" height="8" fill="#2FA8E8"/><path d="M155 100q6-4 12 0 6-4 12 0" fill="none" stroke="#fff" stroke-width="1.8" stroke-linecap="round" opacity=".7"/><path d="M209 108q6-4 12 0 6-4 12 0" fill="none" stroke="#fff" stroke-width="1.8" stroke-linecap="round" opacity=".7"/><path d="M129 116q6-4 12 0 6-4 12 0" fill="none" stroke="#fff" stroke-width="1.8" stroke-linecap="round" opacity=".7"/><path d="M101 124q6-4 12 0 6-4 12 0" fill="none" stroke="#fff" stroke-width="1.8" stroke-linecap="round" opacity=".7"/><path d="M147 132q6-4 12 0 6-4 12 0" fill="none" stroke="#fff" stroke-width="1.8" stroke-linecap="round" opacity=".7"/><path d="M0 146c40-6 80 4 120-2s80-8 120-2 60 4 80 0V240H0z" fill="#FFE3A3"/><path d="M0 146c40-6 80 4 120-2s80-8 120-2 60 4 80 0" fill="none" stroke="#fff" stroke-width="3" opacity=".8"/><circle cx="301.3" cy="183.3" r="1.1" fill="#E9C77A" opacity=".35"/><circle cx="159.5" cy="215.8" r="1.1" fill="#E9C77A" opacity=".35"/><circle cx="12.7" cy="189.9" r="0.8" fill="#E9C77A" opacity=".35"/><circle cx="161.5" cy="218.6" r="1.0" fill="#E9C77A" opacity=".35"/><circle cx="75.0" cy="205.2" r="1.0" fill="#E9C77A" opacity=".35"/><circle cx="74.5" cy="173.8" r="0.8" fill="#E9C77A" opacity=".35"/><circle cx="31.4" cy="166.5" r="0.8" fill="#E9C77A" opacity=".35"/><circle cx="159.4" cy="168.1" r="1.3" fill="#E9C77A" opacity=".35"/><circle cx="239.1" cy="179.2" r="1.3" fill="#E9C77A" opacity=".35"/><circle cx="238.9" cy="231.5" r="0.9" fill="#E9C77A" opacity=".35"/><circle cx="111.3" cy="215.0" r="1.3" fill="#E9C77A" opacity=".35"/><circle cx="100.3" cy="211.8" r="0.8" fill="#E9C77A" opacity=".35"/><circle cx="182.1" cy="196.2" r="1.4" fill="#E9C77A" opacity=".35"/><circle cx="309.9" cy="206.7" r="0.9" fill="#E9C77A" opacity=".35"/><circle cx="194.9" cy="198.4" r="1.5" fill="#E9C77A" opacity=".35"/><circle cx="274.1" cy="177.0" r="1.5" fill="#E9C77A" opacity=".35"/><circle cx="183.1" cy="210.2" r="1.4" fill="#E9C77A" opacity=".35"/><circle cx="38.0" cy="207.5" r="1.4" fill="#E9C77A" opacity=".35"/><circle cx="184.6" cy="194.5" r="1.2" fill="#E9C77A" opacity=".35"/><circle cx="142.2" cy="222.6" r="1.1" fill="#E9C77A" opacity=".35"/><circle cx="97.1" cy="190.1" r="1.4" fill="#E9C77A" opacity=".35"/><circle cx="295.5" cy="171.1" r="0.7" fill="#E9C77A" opacity=".35"/><circle cx="221.2" cy="173.4" r="0.9" fill="#E9C77A" opacity=".35"/><circle cx="114.9" cy="227.4" r="1.3" fill="#E9C77A" opacity=".35"/><circle cx="92.4" cy="182.8" r="1.3" fill="#E9C77A" opacity=".35"/><circle cx="170.1" cy="176.0" r="1.3" fill="#E9C77A" opacity=".35"/><circle cx="60.7" cy="213.9" r="0.9" fill="#E9C77A" opacity=".35"/><circle cx="88.9" cy="196.1" r="1.4" fill="#E9C77A" opacity=".35"/><circle cx="35.3" cy="212.7" r="1.2" fill="#E9C77A" opacity=".35"/><circle cx="159.5" cy="173.8" r="0.8" fill="#E9C77A" opacity=".35"/><circle cx="158.8" cy="205.8" r="0.9" fill="#E9C77A" opacity=".35"/><circle cx="260.1" cy="215.2" r="1.1" fill="#E9C77A" opacity=".35"/><circle cx="232.2" cy="188.3" r="1.4" fill="#E9C77A" opacity=".35"/><circle cx="289.5" cy="174.2" r="0.9" fill="#E9C77A" opacity=".35"/><circle cx="193.4" cy="225.9" r="1.1" fill="#E9C77A" opacity=".35"/><circle cx="153.6" cy="203.1" r="1.5" fill="#E9C77A" opacity=".35"/><circle cx="272.7" cy="234.0" r="1.0" fill="#E9C77A" opacity=".35"/><circle cx="35.7" cy="220.7" r="0.9" fill="#E9C77A" opacity=".35"/><circle cx="92.5" cy="169.5" r="1.3" fill="#E9C77A" opacity=".35"/><circle cx="126.5" cy="190.8" r="1.2" fill="#E9C77A" opacity=".35"/><circle cx="235.3" cy="213.9" r="1.5" fill="#E9C77A" opacity=".35"/><circle cx="163.3" cy="192.3" r="1.2" fill="#E9C77A" opacity=".35"/><circle cx="303.3" cy="175.4" r="0.8" fill="#E9C77A" opacity=".35"/><circle cx="141.8" cy="172.5" r="1.1" fill="#E9C77A" opacity=".35"/><circle cx="203.6" cy="191.3" r="1.5" fill="#E9C77A" opacity=".35"/><circle cx="278.8" cy="220.5" r="1.2" fill="#E9C77A" opacity=".35"/><g id="o0"><g transform="translate(292.7 27.9) scale(1.128 1.128) translate(-15 -11)"><path d="M3 13c0-5 5-8 11-7 3-4 9-4 11 1l4 1.5-4 1.8c0 6-6 10.7-13 10.7-6 0-9-3-9-8z" fill="#B266FF" stroke="#1A0F45" stroke-width="2" stroke-linejoin="round" stroke-linecap="round"/><path d="M7 12c4-1 8 1 9 5-5 1-8-1-9-5z" fill="#fff" opacity=".7" stroke="#1A0F45" stroke-width="1.2" stroke-linejoin="round" stroke-linecap="round"/><circle cx="21" cy="8" r="1.5" fill="#1A0F45"/><path d="M25.5 7.4l4 1.6-4 1.6z" fill="#FFB020" stroke="#1A0F45" stroke-width="1.2" stroke-linejoin="round" stroke-linecap="round"/></g></g><g id="o1"><g transform="translate(139.6 56.8) scale(0.775 0.775) translate(-30 -15)"><circle cx="15" cy="18" r="10" fill="#FFE58A" stroke="#1A0F45" stroke-width="2" stroke-linejoin="round" stroke-linecap="round"/><circle cx="30" cy="13" r="12" fill="#FFE58A" stroke="#1A0F45" stroke-width="2" stroke-linejoin="round" stroke-linecap="round"/><circle cx="45" cy="18" r="10" fill="#FFE58A" stroke="#1A0F45" stroke-width="2" stroke-linejoin="round" stroke-linecap="round"/><circle cx="15" cy="18" r="8.9" fill="#FFE58A"/><circle cx="30" cy="13" r="10.9" fill="#FFE58A"/><circle cx="45" cy="18" r="8.9" fill="#FFE58A"/><rect x="15" y="17" width="30" height="11" fill="#FFE58A"/><path d="M15 28h30" stroke="#1A0F45" stroke-width="2"/></g></g><g id="o2"><g transform="translate(236.5 55.5) scale(1.082 1.082) translate(-30 -15)"><circle cx="15" cy="18" r="10" fill="#FFFFFF" stroke="#1A0F45" stroke-width="2" stroke-linejoin="round" stroke-linecap="round"/><circle cx="30" cy="13" r="12" fill="#FFFFFF" stroke="#1A0F45" stroke-width="2" stroke-linejoin="round" stroke-linecap="round"/><circle cx="45" cy="18" r="10" fill="#FFFFFF" stroke="#1A0F45" stroke-width="2" stroke-linejoin="round" stroke-linecap="round"/><circle cx="15" cy="18" r="8.9" fill="#FFFFFF"/><circle cx="30" cy="13" r="10.9" fill="#FFFFFF"/><circle cx="45" cy="18" r="8.9" fill="#FFFFFF"/><rect x="15" y="17" width="30" height="11" fill="#FFFFFF"/><path d="M15 28h30" stroke="#1A0F45" stroke-width="2"/></g></g><g id="o3"><g transform="translate(62.7 61.1) scale(0.730 0.730) translate(-30 -15)"><circle cx="15" cy="18" r="10" fill="#FFC2DD" stroke="#1A0F45" stroke-width="2" stroke-linejoin="round" stroke-linecap="round"/><circle cx="30" cy="13" r="12" fill="#FFC2DD" stroke="#1A0F45" stroke-width="2" stroke-linejoin="round" stroke-linecap="round"/><circle cx="45" cy="18" r="10" fill="#FFC2DD" stroke="#1A0F45" stroke-width="2" stroke-linejoin="round" stroke-linecap="round"/><circle cx="15" cy="18" r="8.9" fill="#FFC2DD"/><circle cx="30" cy="13" r="10.9" fill="#FFC2DD"/><circle cx="45" cy="18" r="8.9" fill="#FFC2DD"/><rect x="15" y="17" width="30" height="11" fill="#FFC2DD"/><path d="M15 28h30" stroke="#1A0F45" stroke-width="2"/></g></g><g id="o4"><g transform="translate(131.8 99.7) scale(-0.940 0.940) translate(-28 -23)"><path d="M26 4V35" stroke="#1A0F45" stroke-width="2.4"/><path d="M28 6L50 33H28z" fill="#4B8BFF" stroke="#1A0F45" stroke-width="2" stroke-linejoin="round" stroke-linecap="round"/><path d="M24 13L9 33h15z" fill="#fff" stroke="#1A0F45" stroke-width="2" stroke-linejoin="round" stroke-linecap="round"/><path d="M3 34h50l-7 10.6H10z" fill="#E8503A" stroke="#1A0F45" stroke-width="2" stroke-linejoin="round" stroke-linecap="round"/></g></g><g id="o5"><ellipse cx="123.2" cy="167.5" rx="15.5" ry="3.0" fill="#1A0F45" opacity=".16" filter="url(#sm)"/><g transform="translate(123.2 151.6) scale(1.053 1.053) translate(-16 -16)"><path d="M16.0 2.0L19.9 12.1L30.6 12.6L22.3 19.4L25.1 29.9L16.0 24.0L6.9 29.9L9.7 19.4L1.4 12.6L12.1 12.1z" fill="#FF8A3D" stroke="#1A0F45" stroke-width="2" stroke-linejoin="round" stroke-linecap="round"/></g></g><g id="o6"><ellipse cx="193.9" cy="171.3" rx="24.4" ry="4.2" fill="#1A0F45" opacity=".16" filter="url(#sm)"/><g transform="translate(193.9 145.8) scale(0.946 0.946) translate(-28 -28)"><path d="M28 22L35 55" stroke="#1A0F45" stroke-width="4.4" stroke-linecap="round"/><path d="M28 22L35 55" stroke="#F4F0FF" stroke-width="2" stroke-linecap="round"/><path d="M2 24C4 10 15 2 28 2s24 8 26 22z" fill="#FF6FB5" stroke="#1A0F45" stroke-width="2" stroke-linejoin="round" stroke-linecap="round"/><path d="M28 2c-4 6-6.4 14-7 22h14c-.6-8-3-16-7-22z" fill="#fff" stroke="#1A0F45" stroke-width="1.5" stroke-linejoin="round" stroke-linecap="round"/><path d="M2 24q4.4 5 8.6 0 4.4 5 8.6 0 4.4 5 8.8 0 4.4 5 8.6 0 4.4 5 8.6 0 4.4 5 8.8 0" fill="#FFE27A" stroke="#1A0F45" stroke-width="1.3" stroke-linejoin="round" stroke-linecap="round"/><circle cx="28" cy="2.4" r="2" fill="#1A0F45"/></g></g><g id="o7"><ellipse cx="69.7" cy="177.9" rx="28.4" ry="4.9" fill="#1A0F45" opacity=".16" filter="url(#sm)"/><g transform="translate(69.7 148.1) scale(-1.102 1.102) translate(-28 -28)"><path d="M28 22L35 55" stroke="#1A0F45" stroke-width="4.4" stroke-linecap="round"/><path d="M28 22L35 55" stroke="#F4F0FF" stroke-width="2" stroke-linecap="round"/><path d="M2 24C4 10 15 2 28 2s24 8 26 22z" fill="#FF8A3D" stroke="#1A0F45" stroke-width="2" stroke-linejoin="round" stroke-linecap="round"/><path d="M28 2c-4 6-6.4 14-7 22h14c-.6-8-3-16-7-22z" fill="#fff" stroke="#1A0F45" stroke-width="1.5" stroke-linejoin="round" stroke-linecap="round"/><circle cx="28" cy="2.4" r="2" fill="#1A0F45"/></g></g><g id="o8"><rect width=".1" height=".1" opacity="0"/></g><g id="o9"><ellipse cx="193.6" cy="218.0" rx="15.9" ry="3.0" fill="#1A0F45" opacity=".16" filter="url(#sm)"/><g transform="translate(193.6 201.8) scale(1.078 1.078) translate(-16 -16)"><path d="M16.0 2.0L19.9 12.1L30.6 12.6L22.3 19.4L25.1 29.9L16.0 24.0L6.9 29.9L9.7 19.4L1.4 12.6L12.1 12.1z" fill="#FF6FB5" stroke="#1A0F45" stroke-width="2" stroke-linejoin="round" stroke-linecap="round"/></g></g><g id="o10"><ellipse cx="66.3" cy="220.1" rx="20.3" ry="3.5" fill="#1A0F45" opacity=".16" filter="url(#sm)"/><g transform="translate(66.3 205.7) scale(1.101 1.101) translate(-20 -14)"><path d="M9 20l-6 5M10 23l-5 5M31 20l6 5M30 23l5 5" stroke="#1A0F45" stroke-width="2" stroke-linecap="round"/><path d="M12 13L7 8M28 13l5-5" stroke="#1A0F45" stroke-width="2.4"/><path d="M2 7a5 5 0 1 1 9 2l-4-1z" fill="#FF8A3D" stroke="#1A0F45" stroke-width="1.5" stroke-linejoin="round" stroke-linecap="round"/><path d="M29 9a5 5 0 1 1 9-2l-5 1z" fill="#FF8A3D" stroke="#1A0F45" stroke-width="1.5" stroke-linejoin="round" stroke-linecap="round"/><ellipse cx="20" cy="18.6" rx="13" ry="8.4" fill="#FF8A3D" stroke="#1A0F45" stroke-width="2" stroke-linejoin="round" stroke-linecap="round"/><path d="M16 11V7M24 11V7" stroke="#1A0F45" stroke-width="1.6"/><circle cx="16" cy="6.4" r="2.4" fill="#fff" stroke="#1A0F45" stroke-width="1.2" stroke-linejoin="round" stroke-linecap="round"/><circle cx="24" cy="6.4" r="2.4" fill="#fff" stroke="#1A0F45" stroke-width="1.2" stroke-linejoin="round" stroke-linecap="round"/><circle cx="16" cy="6.6" r="1" fill="#1A0F45"/><circle cx="24" cy="6.6" r="1" fill="#1A0F45"/><path d="M17 21q3 2 6 0" fill="none" stroke="#1A0F45" stroke-width="1.3" stroke-linejoin="round" stroke-linecap="round"/></g></g><g id="o11"><ellipse cx="136.6" cy="224.8" rx="22.1" ry="3.8" fill="#1A0F45" opacity=".16" filter="url(#sm)"/><g transform="translate(136.6 201.8) scale(0.961 0.961) translate(-25 -25)"><path d="M25 12V1" stroke="#1A0F45" stroke-width="1.8"/><path d="M25 1l9 3.4-9 3.4z" fill="#FF3D7F" stroke="#1A0F45" stroke-width="1.3" stroke-linejoin="round" stroke-linecap="round"/><rect x="4" y="28" width="42" height="21" fill="#F2C46B" stroke="#1A0F45" stroke-width="2" stroke-linejoin="round" stroke-linecap="round"/><path d="M2 30V16h3v3h3v-3h3v3h3v-3h0V30z" fill="#F2C46B" stroke="#1A0F45" stroke-width="2" stroke-linejoin="round" stroke-linecap="round"/><path d="M36 30V16h3v3h3v-3h3v3h3v-3V30z" fill="#F2C46B" stroke="#1A0F45" stroke-width="2" stroke-linejoin="round" stroke-linecap="round"/><path d="M17 30V12h3v3h3v-3h4v3h3v-3h3V30z" fill="#F2C46B" stroke="#1A0F45" stroke-width="2" stroke-linejoin="round" stroke-linecap="round"/><path d="M20 49v-8a5 5 0 0 1 10 0v8z" fill="#B07A3A" stroke="#1A0F45" stroke-width="1.5" stroke-linejoin="round" stroke-linecap="round"/></g></g><g id="o12"><ellipse cx="243.1" cy="228.7" rx="17.7" ry="3.1" fill="#1A0F45" opacity=".16" filter="url(#sm)"/><g transform="translate(243.1 216.2) scale(0.961 0.961) translate(-20 -14)"><path d="M9 20l-6 5M10 23l-5 5M31 20l6 5M30 23l5 5" stroke="#1A0F45" stroke-width="2" stroke-linecap="round"/><path d="M12 13L7 8M28 13l5-5" stroke="#1A0F45" stroke-width="2.4"/><path d="M2 7a5 5 0 1 1 9 2l-4-1z" fill="#FF8A3D" stroke="#1A0F45" stroke-width="1.5" stroke-linejoin="round" stroke-linecap="round"/><path d="M29 9a5 5 0 1 1 9-2l-5 1z" fill="#FF8A3D" stroke="#1A0F45" stroke-width="1.5" stroke-linejoin="round" stroke-linecap="round"/><ellipse cx="20" cy="18.6" rx="13" ry="8.4" fill="#FF8A3D" stroke="#1A0F45" stroke-width="2" stroke-linejoin="round" stroke-linecap="round"/><path d="M16 11V7M24 11V7" stroke="#1A0F45" stroke-width="1.6"/><circle cx="16" cy="6.4" r="2.4" fill="#fff" stroke="#1A0F45" stroke-width="1.2" stroke-linejoin="round" stroke-linecap="round"/><circle cx="24" cy="6.4" r="2.4" fill="#fff" stroke="#1A0F45" stroke-width="1.2" stroke-linejoin="round" stroke-linecap="round"/><circle cx="16" cy="6.6" r="1" fill="#1A0F45"/><circle cx="24" cy="6.6" r="1" fill="#1A0F45"/><path d="M17 21q3 2 6 0" fill="none" stroke="#1A0F45" stroke-width="1.3" stroke-linejoin="round" stroke-linecap="round"/></g></g><g id="o13"><ellipse cx="293.2" cy="230.7" rx="12.6" ry="3.0" fill="#1A0F45" opacity=".16" filter="url(#sm)"/><g transform="translate(293.2 217.1) scale(0.915 0.915) translate(-15 -16)"><path d="M5 13C5 3 25 3 25 13" fill="none" stroke="#1A0F45" stroke-width="2"/><path d="M3 12h24l-3 19H6z" fill="#FF6FB5" stroke="#1A0F45" stroke-width="2" stroke-linejoin="round" stroke-linecap="round"/><rect x="2" y="10" width="26" height="4.6" rx="2" fill="#FF6FB5" stroke="#1A0F45" stroke-width="2" stroke-linejoin="round" stroke-linecap="round"/></g></g><g id="o14"><ellipse cx="20.5" cy="231.4" rx="9.8" ry="3.0" fill="#1A0F45" opacity=".16" filter="url(#sm)"/><g transform="translate(20.5 221.7) scale(0.711 0.711) translate(-15 -15)"><circle cx="15" cy="15" r="13.4" fill="#fff" stroke="#1A0F45" stroke-width="2" stroke-linejoin="round" stroke-linecap="round"/><path d="M15 15V1.6A13.4 13.4 0 0 1 26.6 8.3z" transform="rotate(0 15 15)" fill="#3DBE5A"/><path d="M15 15V1.6A13.4 13.4 0 0 1 26.6 8.3z" transform="rotate(120 15 15)" fill="#FF8A3D"/><path d="M15 15V1.6A13.4 13.4 0 0 1 26.6 8.3z" transform="rotate(240 15 15)" fill="#FFC93C"/><circle cx="15" cy="15" r="13.4" fill="none" stroke="#1A0F45" stroke-width="2" stroke-linejoin="round" stroke-linecap="round"/><circle cx="15" cy="15" r="3" fill="#fff" stroke="#1A0F45" stroke-width="1.3" stroke-linejoin="round" stroke-linecap="round"/></g></g><rect width="320" height="240" fill="url(#lt)"/><rect width="320" height="240" fill="url(#vg)"/><rect x=".75" y=".75" width="318.5" height="238.5" rx="6" fill="none" stroke="#1A0F45" stroke-width="1.5" opacity=".35"/></g></svg>